<?xml version="1.0" encoding="utf-8"?>
<!-- Generator: Adobe Illustrator 21.0.0, SVG Export Plug-In . SVG Version: 6.00 Build 0)  -->
<svg version="1.1" id="Calque_1" xmlns="http://www.w3.org/2000/svg" xmlns:xlink="http://www.w3.org/1999/xlink" x="0px" y="0px"
	 viewBox="0 0 1000.1 971.2" style="enable-background:new 0 0 1000.1 971.2;" xml:space="preserve">
<style type="text/css">
	.st0{fill:#5C2700;}
	.st1{fill:#918366;}
	.st2{fill:#E5D6C9;}
	.st3{fill:#5F5934;}
	.st4{fill:#BE0000;}
	.st5{fill:#7F4F4F;}
	.st6{fill:#BEA25C;}
	.st7{fill:#FEEACB;}
	.st8{fill:#9F8200;}
	.st9{fill:#26049B;}
	.st10{fill:#9F2700;}
	.st11{fill:#262C9B;}
</style>
<path class="st0" d="M656.9,770.9c-1.1,0.6-2.2,1.2-3.2,1.8c0.2-0.1,0.5-0.2,0.7-0.4c1.4-0.8,2.8-1.5,4.1-2.3
	c0.4-0.2,0.7-0.4,1.1-0.6C658.7,769.9,657.8,770.4,656.9,770.9z M661.4,768.3c-0.2,0.1-0.3,0.2-0.5,0.3c-0.2,0.1-0.3,0.2-0.5,0.3
	c0.1,0,0.2-0.1,0.2-0.1c0,0,0.1,0,0.1-0.1c0.1,0,0.1-0.1,0.2-0.1c0,0,0,0,0,0c0,0,0,0,0,0c0,0,0,0,0,0c0.1,0,0.1-0.1,0.2-0.1
	C661.3,768.4,661.3,768.4,661.4,768.3C661.3,768.4,661.3,768.4,661.4,768.3C661.3,768.4,661.3,768.4,661.4,768.3
	C661.4,768.4,661.4,768.3,661.4,768.3C661.4,768.3,661.4,768.3,661.4,768.3C661.4,768.3,661.4,768.3,661.4,768.3z M661.5,768.3
	C661.5,768.2,661.5,768.2,661.5,768.3c0.1,0,0.1,0,0.1,0v0C661.5,768.2,661.5,768.2,661.5,768.3z M642.4,778.7
	c-0.9,0.4-1.7,0.9-2.5,1.3c1.2-0.6,2.4-1.2,3.6-1.8C643.1,778.3,642.8,778.5,642.4,778.7z M661.7,768.1c0,0-0.1,0-0.1,0.1
	c-0.1,0-0.1,0-0.1,0.1c0,0,0,0,0,0c0,0,0,0-0.1,0c-0.2,0.1-0.3,0.2-0.5,0.3c-0.2,0.1-0.3,0.2-0.5,0.3c0.1,0,0.2-0.1,0.2-0.1
	c0,0,0.1,0,0.1-0.1c0.1,0,0.1-0.1,0.2-0.1c0,0,0,0,0,0c0,0,0,0,0,0c0,0,0,0,0,0c0.1,0,0.1-0.1,0.2-0.1c0,0,0,0,0,0c0,0,0,0,0,0
	c0,0,0,0,0,0c0,0,0,0,0,0c0,0,0,0,0,0c0,0,0,0,0,0c0,0,0.1,0,0.1-0.1c0,0,0,0,0,0L661.7,768.1L661.7,768.1
	C661.7,768.2,661.7,768.2,661.7,768.1C661.8,768.2,661.8,768.2,661.7,768.1L661.7,768.1C661.8,768.1,661.7,768.1,661.7,768.1z
	 M656.9,770.9c-1.1,0.6-2.2,1.2-3.2,1.8c0.2-0.1,0.5-0.2,0.7-0.4c1.4-0.8,2.8-1.5,4.1-2.3c0.4-0.2,0.7-0.4,1.1-0.6
	C658.7,769.9,657.8,770.4,656.9,770.9z M642.4,778.7c-0.9,0.4-1.7,0.9-2.5,1.3c1.2-0.6,2.4-1.2,3.6-1.8
	C643.1,778.3,642.8,778.5,642.4,778.7z M661.6,768.2c-0.1,0-0.1,0-0.1,0.1c0,0,0,0,0,0c0,0,0,0-0.1,0c-0.2,0.1-0.3,0.2-0.5,0.3
	c-0.2,0.1-0.3,0.2-0.5,0.3c-0.1,0-0.2,0.1-0.2,0.1c0.2-0.1,0.3-0.2,0.5-0.3c0,0,0.1,0,0.1-0.1c0.1,0,0.1-0.1,0.2-0.1c0,0,0,0,0,0
	c0,0,0,0,0,0c0,0,0,0,0,0c0.1,0,0.1-0.1,0.2-0.1c0,0,0,0,0,0c0,0,0,0,0,0c0,0,0,0,0,0c0,0,0,0,0,0c0,0,0,0,0,0c0,0,0,0,0,0
	C661.5,768.3,661.5,768.3,661.6,768.2C661.6,768.2,661.6,768.2,661.6,768.2L661.6,768.2L661.6,768.2c0.1,0,0.1,0,0.1-0.1
	C661.7,768.2,661.6,768.2,661.6,768.2z M660,769.1C660,769.2,659.9,769.2,660,769.1c-0.2,0.1-0.3,0.2-0.4,0.2
	c-0.9,0.5-1.8,1-2.7,1.6c-1.1,0.6-2.2,1.2-3.2,1.8c-0.2,0.1-0.3,0.2-0.5,0.3c0.4-0.2,0.8-0.4,1.2-0.6c1.4-0.8,2.8-1.5,4.1-2.3
	c0.4-0.2,0.7-0.4,1.1-0.6c0.2-0.1,0.4-0.2,0.6-0.4C660.1,769,660.1,769.1,660,769.1z M642.4,778.7c-0.9,0.4-1.7,0.9-2.5,1.3
	c1.2-0.6,2.4-1.2,3.6-1.8C643.1,778.3,642.8,778.5,642.4,778.7z M59.6,505c0,1-0.1,2-0.2,2.9c0.1-1.2,0.2-2.4,0.2-3.6
	c0-0.2,0-0.4,0-0.6C59.7,504.2,59.6,504.6,59.6,505z M380.7,217.5c1-0.2,2-0.4,3.1-0.6C382.7,217.1,381.7,217.3,380.7,217.5z
	 M661.6,768.2c-0.1,0-0.1,0-0.1,0.1c0,0,0,0,0,0c0,0,0,0-0.1,0c-0.2,0.1-0.3,0.2-0.5,0.3c-0.2,0.1-0.3,0.2-0.5,0.3
	c-0.1,0-0.2,0.1-0.2,0.1c0.2-0.1,0.3-0.2,0.5-0.3c0,0,0.1,0,0.1-0.1c0.1,0,0.1-0.1,0.2-0.1c0,0,0,0,0,0c0,0,0,0,0,0c0,0,0,0,0,0
	c0.1,0,0.1-0.1,0.2-0.1c0,0,0,0,0,0c0,0,0,0,0,0c0,0,0,0,0,0c0,0,0,0,0,0c0,0,0,0,0,0c0,0,0,0,0,0
	C661.5,768.3,661.5,768.3,661.6,768.2C661.6,768.2,661.6,768.2,661.6,768.2L661.6,768.2L661.6,768.2c0.1,0,0.1,0,0.1-0.1
	C661.7,768.2,661.6,768.2,661.6,768.2z M660,769.1C660,769.2,659.9,769.2,660,769.1c-0.2,0.1-0.3,0.2-0.4,0.2
	c-0.9,0.5-1.8,1-2.7,1.6c-1.1,0.6-2.2,1.2-3.2,1.8c-0.2,0.1-0.3,0.2-0.5,0.3c0.4-0.2,0.8-0.4,1.2-0.6c1.4-0.8,2.8-1.5,4.1-2.3
	c0.4-0.2,0.7-0.4,1.1-0.6c0.2-0.1,0.4-0.2,0.6-0.4C660.1,769,660.1,769.1,660,769.1z M642.4,778.7c-0.9,0.4-1.7,0.9-2.5,1.3
	c1.2-0.6,2.4-1.2,3.6-1.8C643.1,778.3,642.8,778.5,642.4,778.7z M59.6,505c0,1-0.1,2-0.2,2.9c0.1-1.2,0.2-2.4,0.2-3.6
	c0-0.2,0-0.4,0-0.6C59.7,504.2,59.6,504.6,59.6,505z M380.7,217.5c1-0.2,2-0.4,3.1-0.6C382.7,217.1,381.7,217.3,380.7,217.5z
	 M661.6,768.2c-0.1,0-0.1,0-0.1,0.1c0,0,0,0,0,0c0,0,0,0-0.1,0c-0.2,0.1-0.3,0.2-0.5,0.3c-0.2,0.1-0.3,0.2-0.5,0.3
	c-0.1,0-0.2,0.1-0.2,0.1c0.2-0.1,0.3-0.2,0.5-0.3c0,0,0.1,0,0.1-0.1c0.1,0,0.1-0.1,0.2-0.1c0,0,0,0,0,0c0,0,0,0,0,0c0,0,0,0,0,0
	c0.1,0,0.1-0.1,0.2-0.1c0,0,0,0,0,0c0,0,0,0,0,0c0,0,0,0,0,0c0,0,0,0,0,0c0,0,0,0,0,0c0,0,0,0,0,0
	C661.5,768.3,661.5,768.3,661.6,768.2C661.6,768.2,661.6,768.2,661.6,768.2L661.6,768.2L661.6,768.2c0.1,0,0.1,0,0.1-0.1
	C661.7,768.2,661.6,768.2,661.6,768.2z M660,769.1C660,769.2,659.9,769.2,660,769.1c-0.2,0.1-0.3,0.2-0.4,0.2
	c-0.9,0.5-1.8,1-2.7,1.6c-1.1,0.6-2.2,1.2-3.2,1.8c-0.2,0.1-0.3,0.2-0.5,0.3c0.4-0.2,0.8-0.4,1.2-0.6c1.4-0.8,2.8-1.5,4.1-2.3
	c0.4-0.2,0.7-0.4,1.1-0.6c0.2-0.1,0.4-0.2,0.6-0.4C660.1,769,660.1,769.1,660,769.1z M642.4,778.7c-0.9,0.4-1.7,0.9-2.5,1.3
	c1.2-0.6,2.4-1.2,3.6-1.8C643.1,778.3,642.8,778.5,642.4,778.7z M59.6,505c0,1-0.1,2-0.2,2.9c0.1-1.2,0.2-2.4,0.2-3.6
	c0-0.2,0-0.4,0-0.6C59.7,504.2,59.6,504.6,59.6,505z M380.7,217.5c1-0.2,2-0.4,3.1-0.6C382.7,217.1,381.7,217.3,380.7,217.5z
	 M59.6,505c0,1-0.1,2-0.2,2.9c0.1-1.2,0.2-2.4,0.2-3.6c0-0.2,0-0.4,0-0.6C59.7,504.2,59.6,504.6,59.6,505z M380.7,217.5
	c1-0.2,2-0.4,3.1-0.6C382.7,217.1,381.7,217.3,380.7,217.5z M59.6,505c0,1-0.1,2-0.2,2.9c0.1-1.2,0.2-2.4,0.2-3.6c0-0.2,0-0.4,0-0.6
	C59.7,504.2,59.6,504.6,59.6,505z M380.7,217.5c1-0.2,2-0.4,3.1-0.6C382.7,217.1,381.7,217.3,380.7,217.5z M59.6,505
	c0,1-0.1,2-0.2,2.9c0.1-1.2,0.2-2.4,0.2-3.6c0-0.2,0-0.4,0-0.6C59.7,504.2,59.6,504.6,59.6,505z M383.8,216.9
	c-1.1,0.2-2.1,0.4-3.1,0.6C381.7,217.3,382.7,217.1,383.8,216.9z M697.3,242.7C697.3,242.7,697.3,242.7,697.3,242.7
	c-0.3-0.1-0.6-0.1-1-0.2C696.7,242.5,697,242.6,697.3,242.7z M1000.1,703.8c-8.4-68.4-16-137.6-2.5-206.8
	c-10.1-19.4-18.6-41.4-19.4-64.1c-11-12.7-17.7-38.8-25.3-57.4c0.8-11.8-9.3-25.3-16.9-35.4c-17.7-22.8-49.8-48.9-86.9-83.5
	c-0.8-0.8-1.7-1.7-1.7-3.4c-86.9-28.7-133.3-55.7-197.5-84.4c-74.3,5.1-89.5,6.8-146-1.7l4.2-82.7c150.2-28.7,207.6,10.1,246.4-48.1
	c-76.8,19.4-163.7-11.8-245.6-18.6l-6.8-15.2L497,0c-9.3,55.7-3.4,111.4-3.4,167.1c-24.5,1.7-49.8-5.1-74.3-7.6
	c-62.4,31.2-134.2,49.8-211,62.4c-27,50.6-86.9,81.9-133.3,119.8c2.5,11-7.6,27.8-15.2,43C53,399,48,412.5,49.7,429.4
	c-8.4,19.4-21.9,34.6-35.4,46.4C15.1,533.2,16,592.3,0,648c64.1,57.4,80.2,161.2,86.9,216c69.2,5.9,151.9,60.8,229.5,99.6
	c56.5-20.3,168.8-12.7,305.5,7.6c84.4-59.9,135-178.9,163.7-286.1c4.2,75.1,5.1,123.2,12.7,201.7c21.1,24.5,33.8,12.7,47.3,1.7
	c-8.4-74.3-16-155.3-21.9-230.4C848.2,676.8,909.8,697.9,1000.1,703.8z M594.1,712.2c62.5-23.6,126.6-48.9,189.9-55.7
	C744.3,723.2,676,743.4,594.1,712.2z M343.5,699.6c-74.3,27.8-134.2-16.9-175.5-73.4C231.3,632.9,287,670.9,343.5,699.6z
	 M171.4,619.4c70-47.3,127.4-116.5,180.5-182.3c50.7-75.1,121.6-148.5,146-238.8c0.3,2.1,0.5,4.4,0.6,6.7
	c5.7,90.4-84.2,334-149.1,489.5c-1.7-0.8-3.5-1.5-5.2-2.3c-1.5-0.7-3-1.3-4.4-2c-1.8-0.8-3.7-1.7-5.5-2.6c-0.2-0.1-0.4-0.2-0.5-0.3
	c0,0,0,0,0,0c-0.7-0.3-1.4-0.7-2.1-1c-0.8-0.4-1.6-0.8-2.5-1.2c-0.7-0.3-1.3-0.6-2-1c-2.2-1.1-4.4-2.1-6.6-3.2
	c-0.1,0-0.2-0.1-0.3-0.1c-0.8-0.4-1.6-0.8-2.4-1.2c-6.7-3.3-13.3-6.6-20.1-10c-2.3-1.1-4.6-2.3-6.9-3.4c-4.8-2.4-9.7-4.8-14.5-7.2
	c-0.7-0.3-1.3-0.6-2-0.9c-1.8-0.9-3.7-1.8-5.5-2.7c-0.3-0.1-0.5-0.2-0.8-0.4c-0.8-0.4-1.5-0.7-2.3-1.1c-0.8-0.4-1.6-0.8-2.4-1.2
	c-0.5-0.2-0.9-0.4-1.4-0.7c-0.5-0.2-0.9-0.4-1.4-0.7c-0.5-0.2-1.1-0.5-1.7-0.8c-0.9-0.4-1.8-0.9-2.8-1.3c-0.6-0.3-1.2-0.5-1.7-0.8
	c-1-0.5-2.1-1-3.1-1.4c-0.2-0.1-0.4-0.2-0.6-0.2c-0.5-0.2-1-0.5-1.5-0.7c-0.8-0.4-1.7-0.8-2.5-1.1c-8.4-3.8-17-7.4-25.5-10.7
	c0,0,0,0,0,0c-0.1,0-0.2-0.1-0.3-0.1c-0.1,0-0.2-0.1-0.3-0.1c-0.7-0.3-1.5-0.6-2.2-0.8c0,0-0.1,0-0.2-0.1c-0.9-0.3-1.8-0.7-2.7-1
	c0,0,0,0,0,0c-1.9-0.7-3.8-1.4-5.7-2c-0.3-0.1-0.5-0.2-0.8-0.3c-0.3-0.1-0.7-0.2-1-0.3c-0.3-0.1-0.7-0.2-1-0.4
	c-0.8-0.3-1.6-0.5-2.4-0.8c-1.6-0.5-3.2-1.1-4.9-1.6c-0.9-0.3-1.9-0.6-2.8-0.9c-0.5-0.2-1-0.3-1.4-0.4c-2.5-0.7-4.9-1.5-7.4-2.1
	c-0.5-0.2-1.1-0.3-1.6-0.4c-1.2-0.3-2.4-0.6-3.5-0.9c-0.9-0.2-1.9-0.5-2.8-0.7c-1.4-0.3-2.7-0.6-4.1-1c-1.2-0.3-2.5-0.5-3.7-0.8
	C172,619.5,171.7,619.5,171.4,619.4z M580.3,708.9c-1.3-0.2-2.7-0.3-4-0.5c-1.3-0.1-2.5-0.3-3.8-0.4c-0.7-0.1-1.4-0.2-2-0.2
	c-0.2,0-0.5,0-0.7-0.1c-0.1,0-0.2,0-0.4,0c-0.2,0-0.4,0-0.7-0.1c-0.3,0-0.7-0.1-1-0.1c-0.9-0.1-1.8-0.2-2.7-0.3
	c-2-0.2-3.9-0.4-5.9-0.6c-0.1,0-0.2,0-0.3,0c-0.2,0-0.5-0.1-0.8-0.1c-0.2,0-0.5,0-0.8-0.1c-1.3-0.1-2.7-0.3-4-0.4
	c-2.1-0.2-4.1-0.4-6.2-0.6c0,0-0.1,0-0.1,0c-1.4-0.1-2.8-0.2-4.2-0.4c-3.5-0.3-7-0.6-10.4-0.8c-1.8-0.1-3.5-0.3-5.3-0.4
	c-1.7-0.1-3.3-0.2-5-0.4c-1.9-0.1-3.8-0.3-5.7-0.4c-2-0.1-4-0.3-6-0.4c-1.1-0.1-2.2-0.1-3.3-0.2c-2.2-0.1-4.4-0.3-6.7-0.4
	c-2.1-0.1-4.2-0.2-6.4-0.3c-0.2,0-0.3,0-0.5,0c-1.8-0.1-3.7-0.2-5.5-0.3c-2.4-0.1-4.7-0.2-7.1-0.3c-3.9-0.2-7.9-0.4-11.8-0.5
	c-0.2,0-0.3,0-0.5,0c-2.1-0.1-4.2-0.2-6.3-0.2c-0.1,0-0.1,0-0.2,0c-1.8-0.1-3.7-0.1-5.5-0.2c-0.2,0-0.5,0-0.7,0
	c-2.1-0.1-4.2-0.1-6.4-0.2c-0.2,0-0.4,0-0.6,0c-1.7-0.1-3.4-0.1-5.1-0.2c-0.4,0-0.8,0-1.2,0c-0.1,0-0.1,0-0.2,0c0,0,0,0,0,0
	c-2.9-0.1-5.8-0.2-8.6-0.3c-6-0.2-12.1-0.3-18.1-0.5c-6-0.2-12.1-0.3-18.1-0.5c-1.2,0-2.4-0.1-3.7-0.1c-4.1-0.1-8.3-0.2-12.4-0.3
	c-0.3,0-0.6,0-0.9,0c-4.4-0.1-8.9-0.2-13.3-0.4c-4.7-0.1-9.5-0.3-14.2-0.4c-0.1,0-0.2,0-0.2,0c16.9-40.3,34.7-83.4,52-127.8
	c1.4-3.7,2.8-7.4,4.3-11.1c8.9-23.1,17.5-46.4,25.8-69.9c3.6-10.1,7.1-20.2,10.5-30.4c1.4-4.3,2.9-8.6,4.3-12.9
	c0.7-2.1,1.4-4.3,2.1-6.4c0.7-2.1,1.4-4.3,2.1-6.4c0,0,0,0,0-0.1c1.3-4,2.5-7.9,3.8-11.9c0,0,0,0,0-0.1c1.2-3.8,2.3-7.5,3.5-11.3
	c0.5-1.7,1-3.4,1.6-5.1l1.5-5.1c1.4-4.7,2.8-9.4,4.1-14.1c0.4-1.3,0.8-2.6,1.1-4c1.1-3.9,2.2-7.9,3.3-11.8c0.6-2.1,1.1-4.2,1.7-6.2
	c0.4-1.3,0.7-2.6,1-3.8c0.2-0.8,0.4-1.5,0.6-2.2c0.7-2.4,1.3-4.8,1.9-7.3c0.7-2.6,1.3-5.2,2-7.8l1.5-6c0.5-1.9,0.9-3.7,1.4-5.6
	c0.6-2.6,1.2-5.2,1.9-7.7c0.6-2.6,1.2-5.1,1.8-7.7c0.5-2.4,1.1-4.7,1.6-7c0.9-4,1.8-8,2.6-12c0.5-2.5,1-5,1.6-7.6
	c0.3-1.7,0.7-3.5,1-5.2c0.3-1.8,0.7-3.5,1-5.2c0.2-0.8,0.3-1.7,0.5-2.5c0.1-0.7,0.3-1.4,0.4-2.1c0.2-1.1,0.4-2.2,0.6-3.3
	c0.3-1.5,0.5-3,0.8-4.5c0.2-1,0.4-2.1,0.5-3.1c0.1-0.8,0.3-1.5,0.4-2.3c0.3-1.5,0.5-3,0.8-4.5c0.2-1.5,0.5-3,0.7-4.5
	c0.3-1.8,0.5-3.6,0.8-5.4c0.3-1.9,0.5-3.7,0.8-5.6c0.7-4.8,1.3-9.6,1.9-14.4c0.2-1.5,0.3-3,0.5-4.5c0.2-2.1,0.5-4.1,0.7-6.2
	c0.2-2.1,0.5-4.4,0.6-6.5c0-0.2,0-0.3,0-0.5c13.5,133.3,36.3,303.8,60.8,434.6c0.5,2.8,1,5.5,1.5,8.2c3.7,19.9,7.7,39.1,13.7,58.5
	C580.6,708.9,580.5,708.9,580.3,708.9z M380.6,702.1h25.3c59.1,0,120.7,4.2,178.9,11.8c0,2.5-3.4,8.4-3.4,11.8
	c-78.5,48.1-162,38.8-229.5-21.9C361.2,702.1,371.4,702.1,380.6,702.1z M568.8,640.5c-27-137.6-48.1-297.9-61.6-437.1
	c0.4,1.2,0.8,2.4,1.2,3.6c0.3,1.1,0.7,2.1,1.1,3.2c0.3,0.9,0.6,1.8,0.9,2.7c0.1,0.3,0.2,0.6,0.3,0.9l1,2.8c0.4,1.1,0.7,2.1,1.1,3.2
	c0.6,1.8,1.3,3.6,2,5.3c0.5,1.3,1,2.6,1.5,3.9c0.5,1.3,1,2.6,1.5,3.8c0.5,1.2,1,2.4,1.4,3.7c0.5,1.4,1.1,2.8,1.7,4.2
	c0.4,0.9,0.8,1.8,1.1,2.7c1.3,3.2,2.7,6.4,4.1,9.6c0.2,0.4,0.3,0.8,0.5,1.2c0.1,0.3,0.3,0.6,0.4,1s0.3,0.6,0.4,1c0.4,1,0.9,2,1.4,3
	c0.5,1.1,1,2.2,1.5,3.3c0,0.1,0,0.1,0.1,0.2c0.1,0.1,0.1,0.2,0.2,0.4c0,0.1,0,0.1,0.1,0.2c0.6,1.3,1.2,2.7,1.8,4
	c0.2,0.5,0.5,1,0.7,1.5c0.1,0.3,0.3,0.6,0.4,0.8c0.4,0.8,0.7,1.5,1.1,2.3c0.2,0.5,0.5,1,0.7,1.5c0.6,1.3,1.2,2.5,1.8,3.8
	c0.3,0.6,0.6,1.2,0.9,1.8c0.8,1.7,1.6,3.3,2.5,4.9c0.1,0.2,0.2,0.4,0.3,0.6c0,0,0,0.1,0,0.1c0,0,0,0,0,0c0.5,0.9,0.9,1.9,1.4,2.8
	c0.1,0.2,0.2,0.4,0.3,0.6c0.7,1.4,1.4,2.7,2.1,4.1c0.4,0.8,0.8,1.5,1.2,2.3c0.2,0.5,0.5,0.9,0.7,1.4c0.7,1.2,1.3,2.5,2,3.7
	c0,0,0,0.1,0.1,0.1c0.4,0.7,0.8,1.5,1.2,2.2c0.9,1.7,1.8,3.4,2.7,5c1.2,2.2,2.4,4.4,3.6,6.6c1.3,2.3,2.5,4.5,3.8,6.8
	c0.9,1.6,1.9,3.3,2.8,4.9c3.5,6.1,7,12.1,10.6,18.1c1.4,2.4,2.9,4.8,4.3,7.2c4.4,7.2,8.8,14.3,13.3,21.4c1.9,3,3.8,6.1,5.7,9.1
	c2.1,3.3,4.2,6.7,6.4,10c1,1.6,2.1,3.2,3.1,4.9c3.5,5.4,7,10.9,10.5,16.3c3.5,5.4,7,10.8,10.5,16.3c0,0,0,0,0,0c1.5,2.3,3,4.7,4.5,7
	c1.5,2.3,3,4.7,4.5,7c45.6,70.9,92.8,140.1,143.5,207.6c-1,0.2-2,0.4-3,0.6c-1.5,0.3-3,0.6-4.5,0.9s-3,0.6-4.5,0.9
	c-1.5,0.3-3,0.6-4.5,1c-2.8,0.6-5.5,1.2-8.3,1.9c-1.3,0.3-2.5,0.6-3.8,0.9c-1.3,0.3-2.5,0.6-3.8,0.9c-1.3,0.3-2.5,0.6-3.8,1
	c-2,0.5-4,1-6.1,1.6c-2,0.5-4,1.1-6.1,1.6c-2,0.5-4,1.1-6.1,1.7c-2,0.6-4.1,1.2-6.1,1.7c-3,0.9-6.1,1.8-9.1,2.7
	c-3,0.9-6.1,1.9-9.1,2.8c-2,0.6-4.1,1.3-6.1,1.9c-3.2,1-6.3,2-9.5,3c-2.1,0.7-4.3,1.4-6.4,2.1c-1.3,0.4-2.6,0.8-3.8,1.3
	c-2.9,1-5.9,1.9-8.8,2.9c-2.9,1-5.8,2-8.8,3c-2.9,1-5.8,2-8.8,3c-16.1,5.5-32,11.1-47.8,16.5c-2.1,0.7-4.3,1.5-6.4,2.2
	c-2.8,1-5.7,1.9-8.5,2.8c-0.2,0.1-0.3,0.1-0.5,0.2C579,687.8,573.9,663.3,568.8,640.5z M943.5,386.5c17.7,49.8,16,105.5-21.1,148.5
	C924.1,489.4,921.6,425.3,943.5,386.5z M962,449.8c0.3,0.5,0.5,0.9,0.8,1.4c0,0,0,0,0,0.1c0,0,0,0,0,0c0.2,0.3,0.3,0.6,0.5,0.9
	c0,0.1,0.1,0.1,0.1,0.2c0,0,0.1,0.1,0.1,0.1c0.1,0.2,0.2,0.5,0.4,0.7c0.1,0.1,0.1,0.3,0.2,0.4c0.1,0.1,0.2,0.3,0.2,0.4
	c0.4,0.8,0.8,1.6,1.2,2.4c0.2,0.4,0.4,0.8,0.6,1.2c1.1,2.3,2.2,4.8,3.3,7.2c0.3,0.6,0.5,1.2,0.8,1.9c0,0,0,0,0,0
	c0.3,0.6,0.5,1.2,0.8,1.9c1.1,2.5,2.2,5,3.4,7.5c0.3,0.6,0.6,1.2,0.8,1.8c0.7,1.5,1.4,3,2.2,4.5c0.3,0.6,0.6,1.2,0.9,1.7
	c0,0,0,0,0,0.1c0.3,0.5,0.6,1.1,0.8,1.6c0.8,1.6,1.7,3.1,2.6,4.5c0.1,0.2,0.3,0.5,0.4,0.7c0.2,0.3,0.4,0.6,0.6,0.9
	c0,0.1,0.1,0.2,0.2,0.2c0.2,0.3,0.4,0.6,0.6,0.9c0.6,0.8,1.2,1.6,1.7,2.3c0.2,0.2,0.3,0.4,0.5,0.5c0.6,0.7,1.2,1.3,1.8,1.8v0
	c0,0,0,0,0,0c0.2,0.1,0.3,0.2,0.4,0.4v0c0,0,0,0,0,0c0.3,0.3,0.7,0.5,1,0.7c-0.2,0.9-0.3,1.9-0.5,2.8c-0.1,0.5-0.2,0.9-0.2,1.4
	c0,0.2-0.1,0.5-0.1,0.7c-0.1,0.8-0.2,1.6-0.4,2.4c0,0.2,0,0.3-0.1,0.5c-0.2,1.2-0.4,2.5-0.5,3.8c-0.1,0.6-0.2,1.1-0.2,1.7
	c-0.1,0.9-0.2,1.8-0.3,2.7c-0.1,0.9-0.2,1.8-0.3,2.7c-0.5,4.5-1,9.1-1.3,13.7c-0.1,1-0.1,1.9-0.2,2.9c-0.1,0.9-0.1,1.8-0.2,2.8
	c0,0.4-0.1,0.8-0.1,1.2c0,0.7-0.1,1.3-0.1,2c0,0.5-0.1,1.1-0.1,1.6c-0.2,3-0.3,6-0.4,9c-0.1,1.2-0.1,2.5-0.1,3.7
	c0,1.1-0.1,2.1-0.1,3.2c0,0.7,0,1.5,0,2.2c-0.1,3.4-0.1,6.8,0,10.2c0,0.8,0,1.6,0,2.5c0,2.1,0,4.3,0.1,6.5c0,1.6,0.1,3.1,0.1,4.7
	c0,1.4,0.1,2.8,0.1,4.3c0,1,0.1,2,0.1,3c0.1,1.7,0.1,3.3,0.2,4.9c0.1,2,0.2,4,0.3,6c0.1,1.6,0.2,3.2,0.3,4.8
	c0.5,8.4,1.2,16.8,1.9,25.2c0.2,2.4,0.4,4.8,0.7,7.2c0.1,1.1,0.2,2.3,0.3,3.4c0.2,1.9,0.4,3.9,0.6,5.8c0.2,1.7,0.4,3.5,0.5,5.2
	c0,0,0,0,0,0c0,0.1,0,0.2,0,0.3c0,0.1,0,0.2,0,0.3c0.1,1,0.2,2,0.3,3c0,0,0,0,0,0c0,0.3,0.1,0.6,0.1,0.9c0,0.2,0,0.4,0.1,0.6
	c0.1,0.7,0.1,1.4,0.2,2.1c0.1,0.9,0.2,1.8,0.3,2.7c0,0.3,0.1,0.6,0.1,0.9c0,0,0,0,0,0c0.1,0.5,0.1,1.1,0.2,1.6
	c0.2,1.7,0.4,3.4,0.6,5.1c0.4,3.8,0.9,7.6,1.3,11.4c0,0.5,0.1,0.9,0.2,1.4c-31.2-43.9-58.2-92.8-68.4-143.5
	c26.2-21.1,35.4-60.8,36.3-92.8c0.2,0.4,0.5,0.8,0.8,1.2C961.5,448.8,961.8,449.3,962,449.8z M516.3,204.8c1.8,1.8,3.6,3.5,5.5,5.2
	c0,0,0,0,0,0v0c0.7,0.6,1.3,1.2,2,1.8c0.3,0.3,0.6,0.5,0.8,0.8v0c0.1,0.1,0.2,0.2,0.2,0.2c0.3,0.3,0.7,0.6,1,0.9
	c0.9,0.8,1.9,1.7,2.8,2.5c0.3,0.2,0.5,0.5,0.8,0.7s0.5,0.5,0.8,0.7c0.2,0.2,0.5,0.4,0.7,0.6c0.8,0.7,1.6,1.4,2.4,2.1
	c0.2,0.2,0.4,0.4,0.7,0.6c0.5,0.4,0.9,0.8,1.4,1.2c0.6,0.5,1.3,1.1,1.9,1.6c0.5,0.4,1.1,0.9,1.6,1.3c2,1.6,4,3.2,6,4.8
	c0.7,0.6,1.5,1.2,2.2,1.7c1,0.8,2.1,1.6,3.2,2.4c0.7,0.5,1.3,1,2,1.5c1.2,0.9,2.4,1.8,3.6,2.7c0.8,0.6,1.6,1.2,2.4,1.7
	c1.3,0.9,2.5,1.8,3.8,2.7c1.3,0.9,2.6,1.8,3.9,2.6c0.7,0.5,1.3,0.9,2,1.3c0.2,0.1,0.4,0.3,0.6,0.4c1.4,1,2.9,1.9,4.3,2.9
	c2,1.3,4,2.6,6,3.9c1.8,1.1,3.6,2.2,5.4,3.3c0.9,0.6,1.8,1.1,2.7,1.7c2.7,1.7,5.5,3.3,8.2,4.9c0.8,0.5,1.7,1,2.5,1.5
	c1.1,0.6,2.2,1.3,3.3,1.9c0.8,0.4,1.6,0.9,2.3,1.3c1.3,0.7,2.6,1.5,3.9,2.2c1.5,0.8,3,1.7,4.5,2.5c1.3,0.7,2.7,1.4,4,2.2
	c1.7,0.9,3.4,1.8,5.1,2.7c1.4,0.7,2.7,1.4,4.1,2.1c0.2,0.1,0.5,0.2,0.7,0.4c0.9,0.5,1.8,0.9,2.6,1.3c2,1,4.1,2.1,6.1,3.1
	c1.2,0.6,2.3,1.1,3.5,1.7c2.1,1,4.1,2,6.2,3c2.1,1,4.1,2,6.2,3c2.3,1.1,4.6,2.2,7,3.3c2.2,1,4.5,2.1,6.7,3.1c0.1,0,0.2,0.1,0.3,0.2
	v0c9.4,4.3,18.7,8.5,28.1,12.6c2.3,1,4.7,2.1,7,3.1c2.3,1,4.7,2,7,3v0c2.3,1,4.7,2,7,3c4.7,2,9.3,4,13.9,6.1
	c21.2,7.3,42.2,16.2,63.3,25.1c0.5,0.2,1.1,0.5,1.6,0.7c46.5,19.7,93.4,39.6,143.5,44.2c-18.6,40.5-13.5,89.5-17.7,134.2
	C849,493.7,784.9,447.3,722.4,400c-50.6-38.8-108-82.7-146.8-119.8c-18.6-17.7-50.6-64.1-62.4-78.5
	C514.2,202.7,515.2,203.8,516.3,204.8z M920.7,547.6c14.4,52.4,40.5,98.8,63.3,137.6c-39.7-17.7-59.1-37.1-65-82.7h-3.4
	c-13.5,43-52.3,45.6-90.3,43C881,629.5,906.3,589,920.7,547.6z M800.9,643.1c37.1-31.3,81.9-76.9,115.6-101.3
	C906.4,598.3,864.2,641.4,800.9,643.1z M995.4,699.7v-0.1c-55.7,0.7-129.6-18.7-174.3-44.8c-0.1,0-0.1-0.1-0.2-0.1c0,0,0,0,0,0
	c0,0,0,0-0.1-0.1c0,0,0,0,0-0.1v0c0,0,0,0,0,0c0-0.1-0.1-0.1-0.1-0.2c0-0.1,0-0.2,0-0.2c0-0.1,0-0.2,0-0.3c0-0.1,0-0.2,0-0.3
	c0,0,0-0.1,0-0.1c0-0.1,0-0.2,0-0.3c0-0.2,0.1-0.3,0.1-0.5c0-0.2,0.1-0.4,0.2-0.5c0.3-0.9,0.6-1.8,0.7-2.7c0-0.2,0.1-0.4,0.1-0.6
	c0-0.2,0-0.3,0-0.5v0c0-0.1,0-0.2,0-0.3c0-0.1,0-0.2,0-0.3c-0.1-0.5-0.3-0.9-0.8-1.2c36.5,6.6,63.6,3.9,83-17.3
	c0.1-0.1,0.1-0.2,0.2-0.2c4.8-5.4,9.2-11.9,13.1-19.7c0.3-0.5,0.5-1,0.8-1.5c3.4,56.5,30.4,65,74.3,84.4c1.7,0.8,2.5,6.8,3.4,7.6
	H995.4z M951.1,381.4c6.8,18.6,12.7,37.1,23.6,54.9c-1.7,16,2.5,30.4,8.4,44.7c-8.4-13.5-15.2-30.4-22.8-45.6
	c-4.2-16-3.4-32.9-12.7-48.9C949.4,384.8,950.3,383.1,951.1,381.4z M935.1,345.1c10.1,10.1,10.1,26.2,7.6,38
	c-39.7-33.8-62.4-75.9-88.6-116.5C888.7,297.9,919.9,324.9,935.1,345.1z M846.8,258.2c2.1,3.6,4.3,7.2,6.5,10.8
	c0.1,0.1,0.1,0.1,0.1,0.2c1.1,1.8,2.1,3.5,3.2,5.3c23.3,38.4,49.4,78.6,82.7,111.1c0.1,0.1,0.2,0.2,0.2,0.3c0,0.1,0,0.1,0.1,0.2
	c0.1,0.4,0,1-0.2,1.6c-0.1,0.1-0.1,0.2-0.2,0.4c0,0.1-0.1,0.1-0.1,0.2l-0.9,1.5c-0.2,0.3-0.4,0.7-0.6,1c-0.1,0.2-0.3,0.4-0.4,0.6
	c0,0.1-0.1,0.1-0.1,0.2c0,0.1-0.1,0.1-0.1,0.2c-0.1,0.2-0.2,0.5-0.3,0.7c0,0-0.1,0.1-0.1,0.2c0,0.1,0,0.2,0,0.2v0.6
	c0,0.2,0.1,0.4,0.3,0.5h-0.1c0,0-0.1,0-0.1,0c-70-7.6-146.6-46.4-211.6-73.4c-33.1-15.9-68.9-31.9-103.7-49.9
	c-1-0.5-2.1-1.1-3.1-1.6c-5.4-2.8-10.7-5.7-16-8.6c-2.3-1.3-4.6-2.6-6.9-3.9c-0.9-0.5-1.7-1-2.6-1.5c-0.9-0.5-1.7-1-2.6-1.5l-5.1-3
	c-1.6-1-3.3-1.9-4.9-2.9c-0.3-0.1-0.5-0.3-0.8-0.5c-0.7-0.4-1.3-0.8-1.9-1.2c-0.8-0.5-1.7-1-2.5-1.5c-1.5-0.9-3-1.8-4.5-2.8
	c-1.8-1.2-3.7-2.3-5.5-3.5c-1.5-1-3-2-4.5-2.9c-0.9-0.6-1.7-1.1-2.5-1.7c-4-2.7-7.9-5.4-11.8-8.2c-0.5-0.4-1-0.7-1.5-1.1
	c-0.7-0.5-1.5-1-2.2-1.6c-1.3-0.9-2.5-1.9-3.8-2.8c-1-0.8-2.1-1.6-3.1-2.4c-1-0.7-1.9-1.5-2.9-2.2s-1.9-1.5-2.8-2.2
	c-0.5-0.4-1.1-0.9-1.6-1.3c-0.4-0.3-0.8-0.6-1.2-0.9c-0.9-0.8-1.9-1.5-2.8-2.3c-1-0.8-2-1.6-2.9-2.5c-0.8-0.7-1.5-1.3-2.3-2
	c-0.7-0.6-1.3-1.1-1.9-1.7c-1.4-1.2-2.8-2.5-4.2-3.8c-0.2-0.2-0.5-0.4-0.7-0.7c-0.6-0.7-1.4-1.3-2-2c0,0,0,0,0,0
	c0,0-0.1-0.1-0.1-0.1c52.3,29.5,110.5,34.6,169.6,46.4c12.7,1.9,26.6,4.5,40.8,7.1c0.2,0,0.3,0.1,0.5,0.1c8.6,1.6,17.4,3.2,26.1,4.8
	c0.2,0,0.4,0.1,0.6,0.1c3.8,0.7,7.5,1.3,11.3,1.9c0.1,0,0.2,0,0.3,0c1.3,0.2,2.5,0.4,3.8,0.6c3.7,0.6,7.3,1.2,10.9,1.7
	c0.2,0,0.4,0.1,0.5,0.1c2.9,0.4,5.8,0.8,8.7,1.2c0.5,0.1,1,0.1,1.5,0.2c2.3,0.3,4.7,0.5,7,0.8c1.1,0.1,2.3,0.2,3.4,0.3
	c1.2,0.1,2.5,0.2,3.7,0.3c1.2,0.1,2.5,0.2,3.7,0.3c1.2,0.1,2.4,0.2,3.6,0.2c1,0.1,2,0.1,3,0.2c0.9,0,1.8,0.1,2.7,0.1
	c2.7,0.1,5.2,0.1,7.8,0.1c1.4,0,2.8-0.1,4.2-0.1c0.7,0,1.4-0.1,2-0.1c0.5,0,1-0.1,1.5-0.1c0.5,0,1-0.1,1.5-0.1c0,0,0.1,0,0.1,0
	c0.3,0,0.6,0,0.8-0.1c1.9-0.2,3.8-0.4,5.6-0.7c0.5-0.1,1-0.2,1.5-0.2c0.2,0,0.4-0.1,0.7-0.1c0.2,0,0.4-0.1,0.7-0.1
	c0.1,0,0.1,0,0.2,0c0.1,0,0.2,0,0.4-0.1c0.4-0.1,0.7-0.2,1.1-0.2c0.3-0.1,0.7-0.1,1-0.2c0.4-0.1,0.8-0.2,1.2-0.3
	c0.4-0.1,0.9-0.2,1.3-0.3c0.2,0,0.4-0.1,0.5-0.2c0.2,0,0.3-0.1,0.5-0.2c0.8-0.2,1.6-0.5,2.3-0.8
	C846.6,258.3,846.6,258.3,846.8,258.2C846.8,258.2,846.8,258.2,846.8,258.2z M654.1,172.1c59.1,27.8,113.1,59.1,189,83.5
	c-0.1,0-0.1,0-0.2,0c-0.4,0.1-0.7,0.1-1.1,0.2c-0.4,0.1-0.7,0.1-1.1,0.2c-0.2,0-0.4,0.1-0.6,0.1c-0.2,0-0.4,0.1-0.6,0.1
	c-0.2,0-0.4,0.1-0.6,0.1c-0.2,0-0.4,0.1-0.7,0.1c-0.2,0-0.4,0.1-0.7,0.1c-0.7,0.1-1.3,0.2-2,0.3c-1.2,0.2-2.4,0.3-3.5,0.4
	c-1,0.1-1.9,0.2-2.9,0.3c-0.6,0.1-1.3,0.1-1.9,0.2c-0.9,0.1-1.9,0.2-2.8,0.2c-0.1,0-0.1,0-0.2,0c-0.9,0.1-1.9,0.1-2.8,0.2
	c-1.5,0.1-3,0.2-4.5,0.2c-1.5,0.1-3,0.1-4.5,0.1c-2.6,0-5.2,0-7.8,0c-0.5,0-1.1,0-1.6,0c0,0,0,0,0,0h0c0,0,0,0,0,0c0,0-0.1,0-0.1,0
	c-0.9,0-1.8,0-2.7-0.1c-1.3,0-2.6-0.1-4-0.2c-2.6-0.1-5.2-0.3-7.8-0.5c-1.4-0.1-2.7-0.2-4-0.3c-1.3-0.1-2.7-0.2-4-0.4
	c-2.2-0.2-4.4-0.4-6.5-0.7c-0.9-0.1-1.9-0.2-2.8-0.3c-1.1-0.1-2.2-0.3-3.3-0.4c-2.1-0.3-4.2-0.6-6.2-0.9c-0.1,0-0.3,0-0.4-0.1
	c-0.8-0.1-1.6-0.2-2.3-0.3c-3.2-0.5-6.3-1-9.5-1.5c-0.7-0.1-1.4-0.2-2.1-0.4c-1.8-0.3-3.6-0.6-5.3-0.9c-1.8-0.3-3.6-0.6-5.4-1
	c-2-0.4-4.1-0.8-6.1-1.2c-1.3-0.3-2.7-0.5-4-0.8c-0.7-0.1-1.4-0.3-2.1-0.4c-2.1-0.4-4.1-0.8-6.2-1.2c-0.5-0.1-0.9-0.2-1.3-0.3h0
	c-0.6-0.1-1.1-0.2-1.7-0.3c-0.7-0.2-1.5-0.3-2.2-0.5h0c-0.1,0-0.2,0-0.3-0.1c-1.5-0.3-3-0.6-4.5-0.9c0,0-0.1,0-0.1,0
	c-3.6-0.7-7.1-1.5-10.7-2.2c-0.3-0.1-0.7-0.1-1-0.2c-0.7-0.1-1.5-0.3-2.2-0.4c-4.1-0.8-8.2-1.6-12.2-2.4
	c-57.3-11-113.7-24.5-168.5-45.5h-0.1c-0.1,0-0.2-0.1-0.2-0.1C555.3,193.2,611.9,186.5,654.1,172.1z M647.3,173
	c-38,11-95.4,16-133.3,17.7h-7.6c-1.7-0.8-2.5-1.7-2.5-2.5h-0.8l0.8-16C549.4,175.5,593.3,177.2,647.3,173z M503,25.3L503,25.3
	c79.5-1.7,159.5,30.4,241.4,18.6c-0.3,0.3-0.6,0.6-0.9,0.9c-39.7,41.7-163.4,16.9-243.8,32.9c-0.5-2.7-1.1-5.4-1.8-8.2v-0.1
	C494.8,56.7,491.3,43.3,503,25.3z M347.7,433.8c-48.9,65-108.9,137.6-182.3,182.3c-32.1-41.4-54.9-93.7-97.9-127.4
	c193.3-56.6,308.1-171.4,426.2-290.4c0.9,1.7,0.9,1.7,0.9,3.4C470.1,276.8,403.4,362,347.7,433.8z M82,357.3
	c0.3-3.9,0.5-7.7,0.8-11.4c3.5-1.1,6.9-2.1,10.4-3.2c1.4-0.4,2.8-0.9,4.2-1.3c2.4-0.7,4.9-1.5,7.3-2.2c1.4-0.4,2.8-0.9,4.2-1.3
	c3.2-0.9,6.3-1.9,9.5-2.8c6.7-2,13.4-4,20.1-6c7-2.1,14-4.1,21-6.2c1.3-0.4,2.5-0.8,3.8-1.1h0c0.9-0.3,1.8-0.5,2.7-0.8
	c1.5-0.5,3-0.9,4.6-1.4h0c1.2-0.4,2.4-0.7,3.7-1.1c2.5-0.7,4.9-1.5,7.4-2.2c0.1,0,0.2-0.1,0.3-0.1c2.3-0.7,4.7-1.4,7-2.1
	c3.7-1.1,7.3-2.2,11-3.3c0.1,0,0.2,0,0.3-0.1c30.5-9.4,60.8-19.2,90.8-30.5c3.7-1.4,7.5-2.8,11.2-4.3c17.3-6.7,34.3-13.6,50.7-20.4
	c4-1.7,8-3.3,12-5c2.2-0.9,4.4-1.9,6.6-2.8c1.2-0.5,2.4-1,3.7-1.6c1.7-0.7,3.3-1.4,4.9-2.1c0.8-0.3,1.6-0.7,2.4-1
	c10.2-4.4,20-8.7,29.3-12.8c0.1-0.1,0.3-0.1,0.4-0.2c36.8-16.3,65.5-29.7,79-35l-0.4,0.4c0,0,0,0-0.1,0.1
	c-114.5,117.9-234,238.1-424,287.9c0,0-0.1,0-0.1,0c-0.3,0.1-0.5,0.1-0.7,0.2c3.7-19.6,7-40.3,9.7-61.2c0-0.3,0.1-0.5,0.1-0.8
	c1.2-9.6,2.3-19.2,3.3-28.7C80.2,380.8,81.2,368.9,82,357.3z M66.7,497.9c37.1,36.3,70.1,76.8,95.4,124.9
	C111.5,593.3,81.1,554.4,66.7,497.9z M436.8,164.9c2.7,0.4,5.4,0.7,8,1.1c8.7,1.1,17.5,2.1,26.8,3.1c3.8,0.4,7.6,0.8,11.6,1.2
	c2.4,0.2,4.8,0.5,7.2,0.7c0.8,0.1,1.7,0.2,2.5,0.2c0.2,0,0.5,0,0.8,0.1v15.2l-2.5,0.8c-21.1,1.7-48.9-11-69.2-24.5
	C427,163.5,431.9,164.2,436.8,164.9z M225.9,221.4c2.4-0.5,4.8-0.9,7.2-1.4c2.4-0.5,4.8-1,7.2-1.5c4.3-0.9,8.5-1.8,12.7-2.7
	c3.7-0.8,7.4-1.6,11-2.5c0.9-0.2,1.8-0.4,2.8-0.6c3.7-0.9,7.4-1.8,11-2.7c2.1-0.5,4.2-1,6.3-1.6c1.6-0.4,3.1-0.8,4.7-1.2
	c1.3-0.3,2.6-0.7,3.8-1c4.8-1.2,9.5-2.5,14.2-3.8c1.6-0.4,3.2-0.9,4.8-1.3c1.9-0.5,3.8-1.1,5.7-1.6c1.3-0.4,2.5-0.7,3.8-1.1
	c1.4-0.4,2.8-0.8,4.2-1.2c13.2-3.9,26-8,38.4-12.1c3.4-1.1,6.8-2.3,10.2-3.4c2.7-0.9,5.4-1.9,8.1-2.8c1.3-0.5,2.7-0.9,4-1.4
	c4.8-1.7,9.5-3.4,14.2-5.1c3-1.1,6-2.2,9-3.3c3.2-1.2,6.5-2.4,9.7-3.6c0.5,0.4,1,0.8,1.5,1.2c0.1,0.1,0.2,0.2,0.3,0.2
	c0.6,0.5,1.2,0.9,1.8,1.3c0.6,0.4,1.2,0.8,1.8,1.3c18.5,12.8,43.8,20.1,61.5,23.4c0,0,0.1,0,0.2,0c0.8,0.1,1.5,0.3,2.2,0.4
	c-0.1,0-0.2,0-0.3,0c0,0,0,0,0,0s0,0,0,0c-40.4,4.2-78.3,16.9-117.8,22.8c-54.8,11.8-101.9,15.2-150.8,6.8c-0.1,0-0.2,0-0.3,0
	C221,222.3,223.5,221.9,225.9,221.4z M91.8,338.2c0.3-0.3,0.6-0.5,0.9-0.8l0,0c40.4-36,88.1-72.8,119.2-110.4c0,0,0,0,0.1,0
	c0.8,0.2,1.6,0.4,2.4,0.6c0.6,0.1,1.2,0.3,1.8,0.4c0.5,0.1,0.9,0.2,1.4,0.3c1.9,0.5,3.8,0.9,5.7,1.2c0.6,0.1,1.3,0.2,1.9,0.4
	c0.4,0.1,0.8,0.1,1.2,0.2c0,0,0.1,0,0.2,0c0.8,0.1,1.6,0.3,2.4,0.4c1.3,0.2,2.5,0.4,3.8,0.6c0.2,0,0.4,0.1,0.6,0.1
	c0.4,0.1,0.8,0.1,1.3,0.2c0.7,0.1,1.3,0.2,1.9,0.2c0.6,0.1,1.1,0.2,1.7,0.2c0.2,0,0.3,0,0.4,0.1c0.1,0,0.2,0,0.3,0
	c0.2,0,0.4,0,0.6,0.1c0.5,0.1,1,0.1,1.5,0.2c0.2,0,0.4,0,0.6,0.1c0.6,0.1,1.2,0.1,1.8,0.2c0.1,0,0.2,0,0.3,0
	c0.7,0.1,1.4,0.1,2.2,0.2c1.6,0.1,3.3,0.2,5,0.3c9.7,0.5,19.5,0.5,29.4-0.1c1.8-0.1,3.6-0.2,5.5-0.4c2.7-0.2,5.5-0.5,8.2-0.7
	c1.8-0.2,3.7-0.4,5.5-0.6c2.9-0.3,5.7-0.7,8.6-1.1c1.4-0.2,2.9-0.4,4.3-0.6c1.1-0.2,2.1-0.3,3.2-0.5c0.1,0,0.3,0,0.4-0.1
	c1.1-0.2,2.3-0.3,3.4-0.5c2.1-0.3,4.1-0.7,6.2-1c1.8-0.3,3.6-0.6,5.4-0.9c12.6-2.2,25.2-4.7,37.7-7.3c3.3-0.4,7.3-1.1,11.8-1.9
	c1-0.2,2-0.4,3.1-0.6c0.5-0.1,1.1-0.2,1.6-0.3c0.8-0.2,1.6-0.3,2.5-0.5c3.6-0.7,7.4-1.5,11.4-2.3c1.2-0.2,2.5-0.5,3.7-0.8
	c1.9-0.4,3.8-0.8,5.7-1.2c1.7-0.4,3.4-0.7,5.2-1.1c1.2-0.2,2.4-0.5,3.6-0.8c1-0.2,2-0.4,3-0.7c3.2-0.7,6.4-1.4,9.6-2.1
	c0.6-0.1,1.3-0.3,1.9-0.4c0.1,0,0.2,0,0.4-0.1c1.2-0.3,2.3-0.5,3.5-0.8c3.7-0.8,7.4-1.6,11-2.4c0.9-0.2,1.9-0.4,2.8-0.6
	c1.2-0.3,2.4-0.5,3.6-0.8c1.2-0.3,2.4-0.5,3.5-0.8c1.2-0.2,2.3-0.5,3.4-0.7c0.8-0.2,1.7-0.4,2.5-0.5c1.4-0.3,2.7-0.6,4-0.8
	c0.5-0.1,1-0.2,1.5-0.3c1-0.2,2-0.4,3-0.6c0.5-0.1,0.9-0.2,1.4-0.3l0,0c0,0,0.1,0,0.1,0c0.4-0.1,0.9-0.2,1.3-0.2c0,0,0,0,0,0h0
	c0.4-0.1,0.9-0.2,1.3-0.2c0.9-0.2,1.7-0.3,2.5-0.5c0.6-0.1,1.2-0.2,1.8-0.3c0.6-0.1,1.1-0.2,1.7-0.3c0,0,0.1,0,0.1,0
	c0.1,0,0.1,0,0.2,0s0.1,0,0.2,0c0,0,0.1,0,0.1,0c0.4-0.1,0.8-0.1,1.2-0.2c0.2,0,0.3-0.1,0.5-0.1c0.1,0,0.1,0,0.2,0
	c-38,15.2-125.7,54.9-180.6,75.9C234,298,158.9,318.2,88.9,341c0,0,0,0,0,0c-0.1,0-0.1,0-0.1,0c0,0,0.1,0,0.1,0c0,0,0.1-0.1,0.1-0.1
	c0.2-0.2,0.4-0.4,0.6-0.6c0.6-0.6,1.2-1.2,1.9-1.8C91.6,338.4,91.7,338.3,91.8,338.2z M77.7,353.6c0,43-7.6,86.1-16,129.1
	C38,446.4,62.5,386.5,77.7,353.6z M8.9,632.2c0-0.1,0-0.2,0-0.2c0.3-1.5,0.6-3.1,1-4.7c1.9-9.3,3.9-19.4,5.7-29.8
	c0.1-0.8,0.3-1.7,0.4-2.5c0.2-1.2,0.4-2.4,0.6-3.6c0.2-1,0.3-1.9,0.5-2.9c0.1-0.5,0.2-0.9,0.2-1.4c0.2-1,0.3-2,0.5-2.9
	c0.6-3.7,1.2-7.4,1.7-11.1c0.2-1.6,0.4-3.2,0.6-4.7c0.1-0.8,0.2-1.7,0.3-2.5c0.2-1.2,0.3-2.5,0.5-3.7c0.1-0.9,0.2-1.9,0.3-2.8
	c0.1-0.9,0.2-1.9,0.3-2.8c0.1-1,0.2-2.1,0.3-3.1c0.1-1,0.2-2.1,0.3-3.1c0.2-2.1,0.4-4.1,0.5-6.2c0.1-1.4,0.2-2.7,0.3-4.1
	c0.2-2.4,0.3-4.8,0.4-7.2c0-0.6,0.1-1.1,0.1-1.7c0-0.6,0-1.1,0.1-1.7c0-1.1,0.1-2.2,0.1-3.4c0-1.2,0.1-2.3,0.1-3.5
	c0-0.6,0-1.2,0-1.7v-0.5c0,0,0,0,0,0c0,0,0,0,0,0c0,0,0,0,0,0c0,0,0-0.1,0-0.1c0,0,0,0,0,0c0,0,0,0,0,0c0,0,0,0,0,0c0,0,0,0,0,0
	v-0.5c0-1.2,0-2.4,0-3.6c0-1.4,0-2.7-0.1-4.1c0-0.7,0-1.3-0.1-2c0-0.7,0-1.3-0.1-2c0-0.5,0-1-0.1-1.4c0-0.7-0.1-1.4-0.1-2
	c-0.1-0.9-0.1-1.8-0.2-2.8c-0.1-0.9-0.2-1.8-0.2-2.7c-0.1-0.9-0.2-1.8-0.3-2.7c-0.1-0.9-0.2-1.8-0.3-2.6c-0.1-0.9-0.2-1.7-0.4-2.6
	c-0.1-0.8-0.3-1.7-0.4-2.5c0,0,0-0.1,0-0.1c-0.1-0.8-0.3-1.5-0.4-2.3c0-0.1,0-0.1,0-0.2c-0.2-0.8-0.3-1.6-0.5-2.4
	c-0.2-0.8-0.3-1.5-0.5-2.3c-0.1-0.5-0.2-1-0.4-1.5c-0.1-0.4-0.2-0.8-0.3-1.2c-0.2-0.7-0.4-1.3-0.6-2c-0.1-0.2-0.1-0.5-0.2-0.7
	c8.4-8.4,18.6-15.2,24.5-27l16,35.4c0.4,3.8,0.7,7.6,0.7,11.4c0,0.5,0,1.1,0,1.6v1.7c0,0.4,0,0.8,0,1.3v0.3h0c0,0,0,0,0,0
	c0,0,0,0,0,0h0v0c0,0,0,0,0,0c0,0,0,0,0,0v0c0,0,0,0,0,0c0,0,0,0,0,0c0,0,0,0,0,0v0c0,0,0,0,0,0v0.2c0,0.2,0,0.4,0,0.6
	c0,0.1,0,0.2,0,0.3v0.2l0,0c0,0,0,0.1,0,0.2c0,0,0,0,0,0v0.2h0v0c0,0,0,0,0,0c0,0.1,0,0.2,0,0.3c0,0.2,0,0.4,0,0.7
	c0,0.1,0,0.2,0,0.3c0,0,0,0.1,0,0.1c0,0.4,0,0.9-0.1,1.3c0,1-0.1,2-0.2,2.9c0,0.4,0,0.9-0.1,1.3c0,0.5-0.1,1.1-0.1,1.6
	c-0.1,1.6-0.3,3.2-0.5,4.7c-0.1,0.8-0.2,1.6-0.3,2.3c-0.2,1.6-0.5,3.1-0.7,4.7c-0.3,1.6-0.5,3.1-0.9,4.7c-0.1,0.8-0.3,1.5-0.5,2.3h0
	c0,0,0,0.1,0,0.1c-0.2,0.8-0.3,1.6-0.5,2.4c-0.1,0.5-0.2,1-0.3,1.5c-0.1,0.5-0.2,1-0.4,1.6c-0.1,0.3-0.1,0.6-0.2,0.8
	c0,0.2-0.1,0.3-0.1,0.5c-0.1,0.5-0.3,1.1-0.4,1.6c-0.1,0.2-0.1,0.5-0.2,0.7c-0.3,1.3-0.7,2.7-1.1,4c-0.3,1-0.6,1.9-0.9,2.9
	c-0.4,1.2-0.7,2.4-1.1,3.6c-0.8,2.4-1.5,4.7-2.4,7c-0.3,0.8-0.6,1.5-0.8,2.3c-0.9,2.5-1.9,5-2.9,7.5c-0.5,1.4-1.1,2.8-1.7,4.2
	c-0.4,0.9-0.7,1.7-1.1,2.5c-0.6,1.5-1.3,3-1.9,4.5c-0.7,1.5-1.3,3-2,4.4c-0.7,1.5-1.4,3-2.1,4.4c-0.7,1.5-1.4,2.9-2.1,4.4
	c-0.5,1-1,2.1-1.5,3.1c-0.3,0.7-0.7,1.4-1,2.1c0,0.1-0.1,0.2-0.2,0.3c-0.4,0.8-0.8,1.5-1.2,2.3c-0.4,0.9-0.9,1.8-1.3,2.6
	c-0.4,0.9-0.9,1.8-1.4,2.7c-5,9.6-10.1,19-15.1,28.2c-0.3,0.5-0.5,0.9-0.8,1.4c-0.2,0.5-0.5,0.9-0.8,1.4c-0.5,0.9-1,1.9-1.5,2.8
	c-0.8,1.4-1.5,2.8-2.2,4.1c-0.1,0.2-0.2,0.3-0.3,0.5C7.5,638.9,8.2,635.6,8.9,632.2z M89.6,859C84.4,791.6,60,707.2,9.3,648.1
	c27-40.5,46.4-96.2,54.9-144.3c0.1,0.9,0.3,1.7,0.4,2.6c0.1,0.8,0.3,1.5,0.4,2.3c0.1,0.5,0.2,1.1,0.3,1.6c0.1,0.6,0.2,1.1,0.4,1.7
	c0.1,0.2,0.1,0.5,0.2,0.7c0.2,0.7,0.3,1.4,0.5,2.1c0.2,0.7,0.3,1.3,0.5,1.9c0.2,0.7,0.4,1.3,0.5,2c0.5,1.6,0.9,3.2,1.5,4.8
	c0.2,0.5,0.3,1,0.5,1.5c0.2,0.5,0.3,1,0.5,1.5c0,0,0,0,0,0.1c0.2,0.5,0.3,0.9,0.5,1.4c0.1,0.3,0.2,0.7,0.4,1
	c0.1,0.3,0.2,0.6,0.3,0.9c0.1,0.2,0.2,0.4,0.2,0.6h0c0,0.1,0.1,0.1,0.1,0.2c0.2,0.5,0.4,1,0.6,1.5l0.3,0.8c0.1,0.2,0.1,0.3,0.2,0.5
	l0.2,0.6c0,0,0,0,0,0c0.1,0.3,0.2,0.5,0.4,0.8c0,0,0,0.1,0,0.1h0c0.1,0.1,0.1,0.3,0.2,0.4c0.1,0.1,0.1,0.3,0.2,0.4
	c0.1,0.4,0.3,0.7,0.5,1c0.1,0.3,0.2,0.5,0.4,0.8c0.1,0.2,0.2,0.3,0.2,0.5c0.2,0.4,0.4,0.9,0.6,1.3h0c0.2,0.4,0.3,0.7,0.5,1.1
	c0.1,0.2,0.2,0.4,0.3,0.6c0.1,0.2,0.2,0.4,0.3,0.6c0.1,0.2,0.2,0.4,0.3,0.6c0.2,0.5,0.5,0.9,0.7,1.4c0.1,0.3,0.3,0.5,0.4,0.8
	c0.1,0.3,0.3,0.6,0.5,0.9c0.1,0.2,0.2,0.3,0.2,0.5c0.2,0.5,0.5,0.9,0.8,1.3c0.1,0.1,0.1,0.2,0.2,0.3c0.1,0.2,0.3,0.5,0.4,0.7
	c0.1,0.2,0.2,0.4,0.4,0.6c0.4,0.6,0.8,1.3,1.1,1.9c0.6,1,1.2,2,1.9,3c0.1,0.2,0.3,0.4,0.4,0.6c0.1,0.2,0.3,0.5,0.4,0.7
	c0.2,0.3,0.4,0.6,0.6,0.9c0.1,0.2,0.2,0.3,0.3,0.5c0.6,1,1.3,1.9,2,2.9c0,0,0.1,0.1,0.1,0.2c0.2,0.3,0.4,0.6,0.7,1
	c0.5,0.7,1,1.4,1.5,2.1c0.2,0.3,0.4,0.5,0.6,0.8c0.2,0.2,0.3,0.4,0.4,0.6c0,0,0.1,0.1,0.1,0.1c0.4,0.5,0.8,1.1,1.2,1.6
	c0.5,0.6,1,1.2,1.4,1.8c0.5,0.6,0.9,1.2,1.4,1.7c0.4,0.4,0.8,0.9,1.1,1.3c0.1,0.1,0.2,0.2,0.3,0.4c1.3,1.6,2.7,3.2,4.1,4.8
	c3.7,4.1,7.7,8.1,11.8,11.9c1.2,1.1,2.5,2.3,3.7,3.4c0.4,0.3,0.8,0.7,1.1,1c0.1,0.1,0.2,0.2,0.3,0.2c0.1,0.1,0.2,0.2,0.4,0.3
	c0.9,0.8,1.8,1.6,2.7,2.4c0.9,0.8,1.9,1.6,2.8,2.4c1.2,1,2.5,2.1,3.8,3.1c0.9,0.7,1.9,1.5,2.8,2.2c1,0.8,1.9,1.5,2.9,2.2
	c1.3,1,2.6,2,3.9,2.9c0.6,0.5,1.3,1,1.9,1.4c0.3,0.2,0.6,0.5,1,0.7s0.6,0.5,1,0.7c0.6,0.5,1.3,0.9,1.9,1.4c0.7,0.5,1.3,0.9,2,1.4
	c1.2,0.8,2.3,1.6,3.5,2.4c0,0,0,0,0.1,0.1c0,0,0,0,0.1,0c0.5,0.3,0.9,0.7,1.4,1c0.3,0.2,0.5,0.4,0.8,0.5c0,0,0,0,0,0
	c0.6,0.5,1.3,0.9,1.9,1.3c0.6,0.4,1.3,0.9,2,1.3c0.7,0.4,1.3,0.9,2,1.3c1.3,0.8,2.6,1.7,3.9,2.5c0,0.9-0.1,1.9-0.1,2.8
	c0,0,0,0.1,0,0.2c0,0.3,0,0.6-0.1,1c0,0.6-0.1,1.1-0.1,1.7c-0.1,1-0.1,1.9-0.2,2.9c-0.1,0.7-0.1,1.4-0.2,2.1
	c-0.2,2.2-0.4,4.5-0.7,6.7c-0.2,2.2-0.5,4.5-0.9,6.8c-0.1,0.5-0.1,1-0.2,1.4c0,0.2-0.1,0.4-0.1,0.6c0,0.3-0.1,0.6-0.1,0.9
	c0,0.2-0.1,0.4-0.1,0.6c-0.1,0.5-0.2,1.1-0.2,1.7c-0.1,1-0.3,1.9-0.5,2.9c-0.4,2.4-0.8,4.9-1.3,7.3c-0.2,1.2-0.5,2.4-0.7,3.7
	c-0.2,1.2-0.5,2.5-0.7,3.7c-0.5,2.3-1,4.7-1.5,7c-0.5,2.3-1.1,4.7-1.6,7c-0.2,1-0.5,2-0.7,3c-0.2,0.7-0.3,1.4-0.5,2.1
	c-0.2,0.7-0.4,1.4-0.5,2.1c-0.3,1.2-0.6,2.5-1,3.7c-0.4,1.5-0.8,3.1-1.3,4.6c-0.5,1.9-1,3.8-1.6,5.6c-0.5,1.9-1.1,3.7-1.6,5.5
	c-0.7,2.5-1.5,5-2.3,7.5c-0.8,2.5-1.6,5-2.4,7.5c-1.6,5-3.3,10-5,15l-26,70.1c-1.4,3.6-2.8,7.2-4.1,10.8c-0.5,1.2-0.9,2.4-1.4,3.6
	c-0.9,2.4-1.8,4.8-2.7,7.1l-9,24.4C90,857.8,89.8,858.4,89.6,859z M313.1,958.6C247.3,919.8,169.6,881,93.7,859
	c25.3-71.7,63.3-157,70.9-232.1c39.7,59.2,113.9,111.5,180.6,75.2C347.7,783.1,326.6,878.5,313.1,958.6z M611.9,963.6
	c-12.1-1-24.3-2-36.6-3c-0.4,0-0.7-0.1-1.1-0.1c-84.9-7.3-171.8-15.3-256-4.4c12.7-75.9,32.1-172.2,32.1-252.3
	c47.3,59.1,177.2,81,231.2,23.6c-0.2,2.8-0.3,5.7-0.4,8.6v0.3c0,1.4-0.1,2.8-0.1,4.3c-0.9,66.7,19.8,151.9,31.7,223.1
	C612.4,963.7,612.2,963.7,611.9,963.6z M622.3,957.2c0,0.1,0,0.2,0,0.2c-0.2,0.9-0.3,1.8-0.4,2.6c-0.3,1.8-0.5,3.5-0.8,5.3
	c-17.7-81-43.9-167.9-31.2-249.8c43.9,19.4,94.5,20.3,138.4,1.7c-19,18.4-40.1,34.9-64.2,49.4c0,0-0.1,0-0.1,0.1
	c-0.2,0.1-0.4,0.2-0.6,0.4c-0.1,0.1-0.2,0.1-0.3,0.2c0,0,0,0,0,0c0,0,0,0,0,0h0c0,0,0,0,0,0c-0.1,0-0.1,0.1-0.2,0.1c0,0,0,0,0,0
	c0,0,0,0,0,0c0,0,0,0-0.1,0h0c0,0,0,0,0,0c0,0-0.1,0.1-0.1,0.1c0,0,0,0,0,0c0,0,0,0,0,0l0,0l0,0c0,0,0,0,0,0l0,0c0,0,0,0,0,0l0,0
	c0,0,0,0,0,0c0,0,0,0,0,0c0,0-0.1,0.1-0.1,0.1c0,0,0,0,0,0c0,0,0,0,0,0c0,0,0,0,0,0c0,0,0,0,0,0c0,0,0,0,0,0c0,0,0,0,0,0
	c0,0,0,0,0,0c0,0,0,0,0,0c0,0,0,0-0.1,0c0,0,0,0,0,0v0h0c-0.1,0-0.2,0.1-0.2,0.1c0,0,0,0,0,0l0,0c0,0,0,0,0,0v0c0,0,0,0,0,0
	c0,0-0.1,0-0.1,0.1c-0.1,0-0.1,0-0.1,0.1c0,0,0,0,0,0c0,0,0,0-0.1,0c-0.2,0.1-0.3,0.2-0.5,0.3c-0.2,0.1-0.3,0.2-0.5,0.3
	c-0.1,0-0.2,0.1-0.2,0.1c-0.1,0-0.2,0.1-0.2,0.1c0,0,0,0-0.1,0c-0.1,0.1-0.2,0.1-0.3,0.2c-0.9,0.5-1.8,1-2.7,1.6
	c-1.1,0.6-2.2,1.2-3.2,1.8c-0.2,0.1-0.3,0.2-0.5,0.3l0,0c0,0-0.1,0-0.1,0c-0.2,0.1-0.3,0.2-0.5,0.3c-0.2,0.1-0.4,0.2-0.6,0.3
	c-0.6,0.3-1.2,0.7-1.8,1c-0.2,0.1-0.4,0.2-0.5,0.3c-0.4,0.2-0.9,0.5-1.3,0.7c-0.1,0.1-0.2,0.1-0.4,0.2c0,0-0.1,0-0.1,0.1
	c-0.1,0.1-0.3,0.2-0.4,0.2c-0.4,0.2-0.7,0.4-1.1,0.5c-0.5,0.3-1.1,0.6-1.7,0.9c-0.5,0.2-0.9,0.5-1.4,0.7c-0.4,0.2-0.7,0.3-1,0.5
	c-0.9,0.4-1.7,0.9-2.5,1.3c-0.2,0.1-0.4,0.2-0.5,0.3c-0.3,0.2-0.7,0.3-1,0.5c-0.3,0.1-0.5,0.3-0.8,0.4c-0.8,0.4-1.6,0.8-2.4,1.2
	c-0.2,0.1-0.3,0.2-0.5,0.2c-0.1,0-0.1,0.1-0.2,0.1c-0.1,0.1-0.3,0.1-0.4,0.2c-0.7,0.3-1.4,0.7-2.1,1c-0.7,0.3-1.4,0.7-2.1,1
	c-0.9,0.4-1.7,0.8-2.6,1.2c0,0,0,0-0.1,0c-0.1,0.1-0.3,0.1-0.4,0.2c-0.6,0.3-1.3,0.6-2,0.9c1.5,4.4,2.7,8.8,3.8,13.2
	c0.1,0.3,0.1,0.6,0.2,0.8c8.4,34.6,6.2,70,1.5,105.3c0,0,0,0.1,0,0.1c-2.2,16-4.8,32.1-7.3,48C622.7,955.6,622.5,956.4,622.3,957.2z
	 M784.1,670.3c-0.1,0.8-0.3,1.7-0.4,2.6c-0.4,2.2-0.8,4.5-1.2,6.7c-0.1,0.4-0.1,0.7-0.2,1.1c-0.1,0.6-0.2,1.3-0.4,1.9
	c-0.2,1.1-0.4,2.2-0.6,3.3c-0.7,3.5-1.4,7-2.2,10.5c-21.9,98-76,192.5-148.9,263.8c-0.2,0.2-0.4,0.4-0.6,0.6
	c-1.6,1.6-3.2,3.1-4.9,4.7l-0.1,0.1c7.6-53.2,21.1-124.9,3.4-176.4c1.1-0.5,2.2-1,3.3-1.4c0.1,0,0.2-0.1,0.3-0.1
	c54.3-23.8,108.3-69.9,147.6-115.6c0.3-0.4,0.7-0.8,1-1.1c1.6-1.9,3.2-3.8,4.8-5.8C784.6,666.8,784.4,668.6,784.1,670.3z
	 M784.9,665.1C784.9,665.1,784.9,665.1,784.9,665.1C784.9,665.1,784.9,665,784.9,665.1L784.9,665.1z M784.1,649.8
	c-49.9-67.5-96.3-140.1-143.5-209.3c-49-75.9-111.4-174.7-129.2-238c13.5,33.8,39.7,57.4,65.8,81c39.7,37.1,91.1,79.3,142.6,118.1
	c63.3,45.6,129.1,95.4,198.3,133.3l-125.6,109L784.1,649.8z M838.9,882.7c-1.7,23.6-38,9.3-37.1,1.7l-15.2-232.9
	c4.2-3.4,9.3-5.1,13.5-5.1c6.8-0.8,12.7,1.7,16.9,3.4C816.9,650.6,839.7,878.5,838.9,882.7z M380.7,217.5c1-0.2,2-0.4,3.1-0.6
	C382.7,217.1,381.7,217.3,380.7,217.5z M23.9,522.5c0-0.6,0-1.2,0-1.7v-0.5c0,0.2,0,0.5,0,0.7C23.9,521.5,23.9,522,23.9,522.5z
	 M59.6,505c0,1-0.1,2-0.2,2.9c0.1-1.2,0.2-2.4,0.2-3.6c0-0.2,0-0.4,0-0.6C59.7,504.2,59.6,504.6,59.6,505z M380.7,217.5
	c1-0.2,2-0.4,3.1-0.6C382.7,217.1,381.7,217.3,380.7,217.5z M23.9,521c0,0.5,0,1,0,1.5c0-0.6,0-1.2,0-1.7v-0.5
	C23.9,520.5,23.9,520.8,23.9,521z M59.6,505c0,1-0.1,2-0.2,2.9c0.1-1.2,0.2-2.4,0.2-3.6c0-0.2,0-0.4,0-0.6
	C59.7,504.2,59.6,504.6,59.6,505z M380.7,217.5c1-0.2,2-0.4,3.1-0.6C382.7,217.1,381.7,217.3,380.7,217.5z M23.9,521
	c0,0.5,0,1,0,1.5c0-0.6,0-1.2,0-1.7v-0.5C23.9,520.5,23.9,520.8,23.9,521z M59.6,505c0,1-0.1,2-0.2,2.9c0.1-1.2,0.2-2.4,0.2-3.6
	c0-0.2,0-0.4,0-0.6C59.7,504.2,59.6,504.6,59.6,505z M642.4,778.7c-0.9,0.4-1.7,0.9-2.5,1.3c1.2-0.6,2.4-1.2,3.6-1.8
	C643.1,778.3,642.8,778.5,642.4,778.7z M660,769.1C660,769.2,659.9,769.2,660,769.1c-0.2,0.1-0.3,0.2-0.4,0.2
	c-0.9,0.5-1.8,1-2.7,1.6c-1.1,0.6-2.2,1.2-3.2,1.8c-0.2,0.1-0.3,0.2-0.5,0.3c0.4-0.2,0.8-0.4,1.2-0.6c1.4-0.8,2.8-1.5,4.1-2.3
	c0.4-0.2,0.7-0.4,1.1-0.6c0.2-0.1,0.4-0.2,0.6-0.4C660.1,769,660.1,769.1,660,769.1z M661.6,768.2c-0.1,0-0.1,0-0.1,0.1c0,0,0,0,0,0
	c0,0,0,0-0.1,0c-0.2,0.1-0.3,0.2-0.5,0.3c-0.2,0.1-0.3,0.2-0.5,0.3c-0.1,0-0.2,0.1-0.2,0.1c0.2-0.1,0.3-0.2,0.5-0.3
	c0,0,0.1,0,0.1-0.1c0.1,0,0.1-0.1,0.2-0.1c0,0,0,0,0,0c0,0,0,0,0,0c0,0,0,0,0,0c0.1,0,0.1-0.1,0.2-0.1c0,0,0.1,0,0.1-0.1
	c0,0,0,0,0,0c0,0,0,0,0.1,0C661.5,768.3,661.5,768.3,661.6,768.2C661.6,768.2,661.6,768.2,661.6,768.2L661.6,768.2L661.6,768.2
	c0.1,0,0.1,0,0.1-0.1C661.7,768.2,661.6,768.2,661.6,768.2z M380.7,217.5c1-0.2,2-0.4,3.1-0.6C382.7,217.1,381.7,217.3,380.7,217.5z
	 M23.9,521c0,0.5,0,1,0,1.5c0-0.6,0-1.2,0-1.7v-0.5C23.9,520.5,23.9,520.8,23.9,521z M59.6,505c0,1-0.1,2-0.2,2.9
	c0.1-1.2,0.2-2.4,0.2-3.6c0-0.2,0-0.4,0-0.6C59.7,504.2,59.6,504.6,59.6,505z M642.4,778.7c-0.9,0.4-1.7,0.9-2.5,1.3
	c1.2-0.6,2.4-1.2,3.6-1.8C643.1,778.3,642.8,778.5,642.4,778.7z M660,769.1C660,769.2,659.9,769.2,660,769.1
	c-0.2,0.1-0.3,0.2-0.4,0.2c-0.9,0.5-1.8,1-2.7,1.6c-1.1,0.6-2.2,1.2-3.2,1.8c-0.2,0.1-0.3,0.2-0.5,0.3c0.4-0.2,0.8-0.4,1.2-0.6
	c1.4-0.8,2.8-1.5,4.1-2.3c0.4-0.2,0.7-0.4,1.1-0.6c0.2-0.1,0.4-0.2,0.6-0.4C660.1,769,660.1,769.1,660,769.1z M661.6,768.2
	c-0.1,0-0.1,0-0.1,0.1c0,0,0,0,0,0c0,0,0,0-0.1,0c-0.2,0.1-0.3,0.2-0.5,0.3c-0.2,0.1-0.3,0.2-0.5,0.3c-0.1,0-0.2,0.1-0.2,0.1
	c0.2-0.1,0.3-0.2,0.5-0.3c0,0,0.1,0,0.1-0.1c0.1,0,0.1-0.1,0.2-0.1c0,0,0,0,0,0c0,0,0,0,0,0c0,0,0,0,0,0c0.1,0,0.1-0.1,0.2-0.1
	c0,0,0,0,0,0c0,0,0,0,0,0c0,0,0,0,0,0c0,0,0,0,0,0c0,0,0,0,0,0c0,0,0,0,0,0C661.5,768.3,661.5,768.3,661.6,768.2
	C661.6,768.2,661.6,768.2,661.6,768.2L661.6,768.2L661.6,768.2c0.1,0,0.1,0,0.1-0.1C661.7,768.2,661.6,768.2,661.6,768.2z
	 M380.7,217.5c1-0.2,2-0.4,3.1-0.6C382.7,217.1,381.7,217.3,380.7,217.5z M23.9,521c0,0.5,0,1,0,1.5c0-0.6,0-1.2,0-1.7v-0.5
	C23.9,520.5,23.9,520.8,23.9,521z M59.6,505c0,1-0.1,2-0.2,2.9c0.1-1.2,0.2-2.4,0.2-3.6c0-0.2,0-0.4,0-0.6
	C59.7,504.2,59.6,504.6,59.6,505z M642.4,778.7c-0.9,0.4-1.7,0.9-2.5,1.3c1.2-0.6,2.4-1.2,3.6-1.8
	C643.1,778.3,642.8,778.5,642.4,778.7z M660,769.1C660,769.2,659.9,769.2,660,769.1c-0.2,0.1-0.3,0.2-0.4,0.2
	c-0.9,0.5-1.8,1-2.7,1.6c-1.1,0.6-2.2,1.2-3.2,1.8c-0.2,0.1-0.3,0.2-0.5,0.3c0.4-0.2,0.8-0.4,1.2-0.6c1.4-0.8,2.8-1.5,4.1-2.3
	c0.4-0.2,0.7-0.4,1.1-0.6c0.2-0.1,0.4-0.2,0.6-0.4C660.1,769,660.1,769.1,660,769.1z M661.6,768.2c-0.1,0-0.1,0-0.1,0.1c0,0,0,0,0,0
	c0,0,0,0-0.1,0c-0.2,0.1-0.3,0.2-0.5,0.3c-0.2,0.1-0.3,0.2-0.5,0.3c-0.1,0-0.2,0.1-0.2,0.1c0.2-0.1,0.3-0.2,0.5-0.3
	c0,0,0.1,0,0.1-0.1c0.1,0,0.1-0.1,0.2-0.1c0,0,0,0,0,0c0,0,0,0,0,0c0,0,0,0,0,0c0.1,0,0.1-0.1,0.2-0.1c0,0,0,0,0,0c0,0,0,0,0,0
	c0,0,0,0,0,0c0,0,0,0,0,0c0,0,0,0,0,0c0,0,0,0,0,0C661.5,768.3,661.5,768.3,661.6,768.2C661.6,768.2,661.6,768.2,661.6,768.2
	L661.6,768.2L661.6,768.2c0.1,0,0.1,0,0.1-0.1C661.7,768.2,661.6,768.2,661.6,768.2z M380.7,217.5c1-0.2,2-0.4,3.1-0.6
	C382.7,217.1,381.7,217.3,380.7,217.5z M23.9,521c0,0.5,0,1,0,1.5c0-0.6,0-1.2,0-1.7v-0.5C23.9,520.5,23.9,520.8,23.9,521z
	 M642.4,778.7c-0.9,0.4-1.7,0.9-2.5,1.3c1.2-0.6,2.4-1.2,3.6-1.8C643.1,778.3,642.8,778.5,642.4,778.7z M661.7,768.1
	c0,0-0.1,0-0.1,0.1c-0.1,0-0.1,0-0.1,0.1c0,0,0,0,0,0c0,0,0,0-0.1,0c-0.2,0.1-0.3,0.2-0.5,0.3c-0.2,0.1-0.3,0.2-0.5,0.3
	c-0.1,0-0.2,0.1-0.2,0.1c0.2-0.1,0.3-0.2,0.5-0.3c0,0,0.1,0,0.1-0.1c0.1,0,0.1-0.1,0.2-0.1c0,0,0,0,0,0c0,0,0,0,0,0c0,0,0,0,0,0
	c0.1,0,0.1-0.1,0.2-0.1c0,0,0,0,0,0c0,0,0,0,0,0c0,0,0,0,0,0c0,0,0,0,0,0c0,0,0,0,0,0c0,0,0,0,0,0c0,0,0.1,0,0.1-0.1c0,0,0,0,0,0
	L661.7,768.1L661.7,768.1C661.7,768.2,661.7,768.2,661.7,768.1C661.8,768.2,661.8,768.2,661.7,768.1L661.7,768.1
	C661.8,768.1,661.7,768.1,661.7,768.1z M660,769.1C660,769.2,659.9,769.2,660,769.1c-0.2,0.1-0.3,0.2-0.4,0.2
	c-0.9,0.5-1.8,1-2.7,1.6c-1.1,0.6-2.2,1.2-3.2,1.8c0.2-0.1,0.5-0.2,0.7-0.4c1.4-0.8,2.8-1.5,4.1-2.3c0.4-0.2,0.7-0.4,1.1-0.6
	c0.2-0.1,0.4-0.2,0.6-0.4C660.1,769,660.1,769.1,660,769.1z M642.4,778.7c-0.9,0.4-1.7,0.9-2.5,1.3c1.2-0.6,2.4-1.2,3.6-1.8
	C643.1,778.3,642.8,778.5,642.4,778.7z M656.9,770.9c-1.1,0.6-2.2,1.2-3.2,1.8c0.2-0.1,0.5-0.2,0.7-0.4c1.4-0.8,2.8-1.5,4.1-2.3
	c0.4-0.2,0.7-0.4,1.1-0.6C658.7,769.9,657.8,770.4,656.9,770.9z M661.4,768.3c-0.2,0.1-0.3,0.2-0.5,0.3c-0.2,0.1-0.3,0.2-0.5,0.3
	c0.1,0,0.2-0.1,0.2-0.1c0,0,0.1,0,0.1-0.1c0.1,0,0.1-0.1,0.2-0.1c0,0,0,0,0,0c0,0,0,0,0,0c0,0,0,0,0,0c0.1,0,0.1-0.1,0.2-0.1
	C661.3,768.4,661.3,768.4,661.4,768.3C661.3,768.4,661.3,768.4,661.4,768.3C661.3,768.4,661.3,768.4,661.4,768.3
	C661.4,768.4,661.4,768.3,661.4,768.3C661.4,768.3,661.4,768.3,661.4,768.3C661.4,768.3,661.4,768.3,661.4,768.3z M661.5,768.3
	C661.5,768.2,661.5,768.2,661.5,768.3c0.1,0,0.1,0,0.1,0v0C661.5,768.2,661.5,768.2,661.5,768.3z"/>
<path class="st1" d="M784.9,665.1c-0.8,5.1-1.7,10.3-2.7,15.5c-0.1,0.6-0.2,1.3-0.4,1.9c-0.2,1.1-0.4,2.2-0.6,3.3
	c-0.7,3.5-1.4,7-2.2,10.5c-22,97.9-76.7,191.9-148.9,263.8c-0.2,0.2-0.4,0.4-0.6,0.6c-1.6,1.6-3.2,3.1-4.9,4.7
	c1.7-1.6,3.3-3.2,4.9-4.8c-1.6,1.6-3.3,3.1-4.9,4.7c7.6-53.2,21.1-124.7,3.4-176.2c1.1-0.5,2.2-1,3.2-1.4c0.1,0,0.2-0.1,0.3-0.1
	c54.3-23.8,108.3-69.9,147.6-115.6c0.3-0.4,0.7-0.8,1-1.1C781.7,669,783.3,667.1,784.9,665.1z"/>
<path class="st2" d="M629.5,960.6c-1.6,1.6-3.2,3.2-4.9,4.8c0,0,0-0.1,0-0.1C626.2,963.7,627.9,962.2,629.5,960.6z"/>
<path class="st2" d="M784.9,665.1c-0.2,1.7-0.5,3.4-0.8,5.2c-0.1,0.8-0.3,1.7-0.4,2.6c-0.4,2.2-0.8,4.5-1.2,6.7c-0.2,1-0.4,2-0.6,3
	c0.1-0.6,0.2-1.3,0.4-1.9C783.2,675.5,784.1,670.3,784.9,665.1z"/>
<path class="st2" d="M784.9,665c0,0,0,0.1,0,0.1v0c-1.6,2-3.2,3.9-4.8,5.8C781.7,668.8,783.3,666.9,784.9,665z"/>
<path class="st3" d="M629.5,960.6c-1.6,1.6-3.2,3.2-4.9,4.8v-0.1c0,0,0,0,0,0C626.2,963.7,627.9,962.2,629.5,960.6z"/>
<path class="st3" d="M779.1,671.8c-39.3,45.8-93.3,91.8-147.6,115.6C685.7,762.9,739.8,716.8,779.1,671.8z"/>
<path class="st1" d="M995.4,699.6c-55.7,0.7-129.6-18.7-174.3-44.8c-0.1,0-0.1-0.1-0.2-0.1c0,0,0,0,0,0c0,0,0,0-0.1-0.1
	c0,0,0,0,0-0.1v0c0,0,0,0,0,0c0-0.1-0.1-0.1-0.1-0.2c0-0.1,0-0.2,0-0.2c0-0.1,0-0.2,0-0.3c0-0.1,0-0.2,0-0.3
	c0.1-0.4,0.2-0.8,0.3-1.3c0-0.1,0-0.1,0.1-0.2c0-0.1,0.1-0.3,0.1-0.4c0.3-1.1,0.7-2.3,0.7-3.3v0c0-0.1,0-0.2,0-0.3
	c0-0.1,0-0.2,0-0.3c36.2,6.3,63.1,3.2,82.2-18.5c0.1-0.1,0.1-0.2,0.2-0.2c4.8-5.4,9.2-11.9,13.1-19.7c3.6,55.9,30.5,64.4,74.3,83.8
	C993.7,693.6,994.6,697.7,995.4,699.6z"/>
<path class="st2" d="M821.9,648.2c0,1-0.3,2.2-0.7,3.3c0,0.1-0.1,0.3-0.1,0.4c0,0.1,0,0.2-0.1,0.2c-0.1,0.5-0.2,0.9-0.3,1.3
	c0,0.1,0,0.2,0,0.3c0-0.1,0-0.3,0.1-0.4c0-0.1,0-0.2,0-0.3c0-0.2,0.1-0.3,0.1-0.5c0-0.2,0.1-0.4,0.2-0.5c0.3-0.9,0.6-1.8,0.7-2.7
	c0-0.2,0.1-0.4,0.1-0.6C821.9,648.5,821.9,648.3,821.9,648.2z"/>
<path class="st3" d="M917.3,609.1L917.3,609.1c-3.9,7.9-8.2,14.4-13.1,19.7c4.8-5.5,9.2-12.3,13-20.4
	C917.3,608.7,917.3,608.9,917.3,609.1z"/>
<path class="st3" d="M995.8,700.4c-55.7,0.8-130-19.4-175.5-44.7c-1.7-0.8,2.5-6.8,0-8.4c0.5,0.1,1,0.2,1.6,0.3c0,0.1,0,0.2,0,0.3
	c0,0.1,0,0.2,0,0.3v0c0,1-0.3,2.2-0.7,3.3c0,0.1-0.1,0.3-0.1,0.4c0,0.1,0,0.2-0.1,0.2c-0.1,0.5-0.2,0.9-0.3,1.3c0,0.1,0,0.2,0,0.3
	c0,0.1,0,0.2,0,0.3c0,0.1,0,0.2,0,0.2c0,0.1,0,0.2,0.1,0.2c0,0,0,0,0,0v0c0,0,0,0,0,0.1c0,0,0,0.1,0.1,0.1c0,0,0,0,0,0
	c0,0,0.1,0.1,0.2,0.1c44.7,26.1,118.6,45.5,174.3,44.8c0,0,0,0.1,0,0.1C995.5,700,995.7,700.3,995.8,700.4z"/>
<path class="st4" d="M838.9,882.7c-1.7,23.6-38,9.3-37.1,1.7l-15.2-232.9c4.2-3.4,9.3-5.1,13.5-5.1c6.8-0.8,12.7,1.7,16.9,3.4
	C816.9,650.6,839.7,878.5,838.9,882.7z"/>
<path class="st4" d="M743.5,44.8c-39.7,41.7-163.4,16.9-243.8,32.9c-0.5-2.7-1.1-5.4-1.8-8.2v-0.1c-2.8-12.9-5.7-26.3,5.2-44.1
	C581.2,24.5,661.9,55.5,743.5,44.8z"/>
<path class="st5" d="M744.4,44.7c-38.8,43-163.7,17.7-244.7,33.8c-0.5-3-1.1-6-1.8-9c0.7,2.8,1.3,5.5,1.8,8.2
	c80.4-16,204.1,8.8,243.8-32.9C743.8,44.8,744.1,44.7,744.4,44.7z"/>
<path class="st6" d="M59.8,497.3v1.7c0,0.4,0,0.8,0,1.3c0,0.4,0,0.8,0,1.3c0,0.2,0,0.4,0,0.6c0,0.7,0,1.4-0.1,2.2
	c0,1.2-0.1,2.4-0.2,3.6c0,0.4,0,0.9-0.1,1.3c0,0.5-0.1,1.1-0.1,1.6c-0.1,1.6-0.3,3.2-0.5,4.7c-0.1,0.8-0.2,1.6-0.3,2.3
	c-0.2,1.6-0.5,3.1-0.7,4.7c-0.3,1.6-0.5,3.1-0.9,4.7c-0.2,0.8-0.3,1.5-0.5,2.3c0,0,0,0.1,0,0.1c-0.1,0.4-0.2,0.8-0.3,1.2
	c-0.1,0.4-0.2,0.8-0.3,1.3c-0.2,1-0.5,2-0.7,3c-0.1,0.3-0.1,0.6-0.2,0.8c0,0.2-0.1,0.3-0.1,0.5c-0.2,0.8-0.4,1.5-0.6,2.3
	c-0.3,1.3-0.7,2.7-1.1,4c-0.3,1-0.6,1.9-0.9,2.9c-0.4,1.2-0.7,2.4-1.1,3.6c-0.8,2.4-1.5,4.7-2.4,7c-0.3,0.8-0.6,1.5-0.8,2.3
	c-0.9,2.5-1.9,5-2.9,7.5c-0.6,1.4-1.1,2.8-1.7,4.2c-0.4,0.9-0.7,1.7-1.1,2.5c-0.6,1.5-1.3,3-1.9,4.5c-0.7,1.5-1.3,3-2,4.4
	c-0.7,1.5-1.4,3-2.1,4.4c-0.7,1.5-1.4,2.9-2.1,4.4c-0.5,1-1,2.1-1.5,3.1c-0.3,0.7-0.7,1.4-1,2.1c0,0.1-0.1,0.2-0.2,0.3
	c-0.4,0.8-0.8,1.5-1.2,2.3c-0.4,0.9-0.9,1.8-1.3,2.6c-0.4,0.9-0.9,1.8-1.4,2.7c-5,9.6-10.1,19-15.1,28.2c-1,1.9-2.1,3.8-3.1,5.6
	c-0.8,1.4-1.5,2.8-2.2,4.1c0.6-3,1.2-6.2,1.8-9.4c0-0.1,0-0.2,0-0.2c0.3-1.5,0.6-3.1,1-4.7c5.8-28.2,12.1-62.8,13.7-94.5
	c0-0.6,0.1-1.1,0.1-1.7c0-0.6,0-1.1,0.1-1.7c0-1.1,0.1-2.2,0.1-3.4c0-1.2,0.1-2.3,0.1-3.5c0-0.6,0-1.2,0-1.7c0-4.4,0-8.7-0.2-12.9
	c0-0.5,0-1-0.1-1.4c0-0.7-0.1-1.4-0.1-2c-0.1-0.9-0.1-1.8-0.2-2.8c-0.1-0.9-0.1-1.8-0.2-2.7c-0.1-0.9-0.2-1.8-0.3-2.7
	c-0.1-0.9-0.2-1.8-0.3-2.6c-0.1-0.9-0.2-1.7-0.4-2.6c-0.1-0.8-0.3-1.7-0.4-2.5c0,0,0-0.1,0-0.1c-0.1-0.8-0.3-1.5-0.4-2.3
	c0-0.1,0-0.1,0-0.2c-0.2-0.8-0.3-1.6-0.5-2.4c-0.2-0.8-0.3-1.5-0.5-2.3c-0.1-0.5-0.2-1-0.4-1.5c-0.1-0.4-0.2-0.8-0.3-1.2
	c-0.2-0.7-0.4-1.3-0.6-2c8.4-8.3,18.4-15.1,24.3-26.8l16,35.4c0.4,3.5,0.6,7,0.7,10.5C59.8,496.2,59.8,496.8,59.8,497.3z"/>
<path class="st7" d="M21,562c1.2-9.9,2.1-19.7,2.6-29.2c-1.5,31.7-7.8,66.3-13.7,94.5c1.9-9.3,3.9-19.4,5.7-29.8
	c0.1-0.8,0.3-1.7,0.4-2.5c0.2-1.2,0.4-2.4,0.6-3.6c0.2-1,0.3-1.9,0.5-2.9c0.1-0.5,0.2-0.9,0.2-1.4c0.2-1,0.3-2,0.5-2.9
	c0.6-3.7,1.2-7.4,1.7-11.1c0.2-1.6,0.4-3.2,0.6-4.7c0.1-0.8,0.2-1.7,0.3-2.5C20.7,564.5,20.8,563.3,21,562z"/>
<path class="st7" d="M23.5,532.8c0.1-2.3,0.2-4.5,0.3-6.8c0,1.1-0.1,2.2-0.1,3.4c0,0.6,0,1.1-0.1,1.7
	C23.6,531.7,23.6,532.2,23.5,532.8z"/>
<path class="st8" d="M23.9,522.5c0,1.2,0,2.3-0.1,3.5c0,1.1-0.1,2.2-0.1,3.4c0,0.6,0,1.1-0.1,1.7c0,0.6,0,1.1-0.1,1.7
	c-1.5,31.7-7.8,66.3-13.7,94.5c-0.3,1.6-0.7,3.2-1,4.7c9.3-47.9,22.2-115.3,9.6-155.2c0.1-0.1,0.1-0.1,0.2-0.2
	C22.7,489.5,24.1,505.4,23.9,522.5z"/>
<path class="st8" d="M59.7,502.2c0-0.1,0-0.2,0-0.3c-1,50.2-29.4,97.1-53,141.2c0.1-0.5,0.2-0.9,0.3-1.4c0.7-1.4,1.5-2.7,2.2-4.1
	c0.5-0.9,1-1.9,1.5-2.8c10.8-19.8,22.3-40.4,31.4-61.8c4.9-11.4,9-23,12.1-34.7c0.2-0.7,0.4-1.4,0.5-2.1c0.1-0.3,0.1-0.6,0.2-0.8
	c0.5-1.8,0.9-3.6,1.2-5.5c0,0,0-0.1,0-0.1c0.2-0.8,0.3-1.5,0.5-2.3c0.3-1.6,0.6-3.1,0.9-4.7c0.3-1.6,0.5-3.1,0.7-4.7
	c0.1-0.8,0.2-1.6,0.3-2.3c0.2-1.6,0.4-3.1,0.5-4.7c0.1-0.5,0.1-1.1,0.1-1.6c0-0.4,0.1-0.9,0.1-1.3c0.1-1.2,0.2-2.4,0.2-3.6
	C59.7,503.6,59.7,502.9,59.7,502.2z"/>
<path class="st8" d="M59.8,499c0,0.4,0,0.8,0,1.3c0,0.4,0,0.8,0,1.3c0,0.1,0,0.2,0,0.3C59.8,500.9,59.8,499.9,59.8,499z"/>
<path class="st6" d="M313.1,958.6C247.3,919.8,169.6,881,93.7,859c25.3-71.7,63.3-157,70.9-232.1c39.7,59.2,113.9,111.5,180.6,75.2
	C347.7,783.1,326.6,878.5,313.1,958.6z"/>
<path class="st6" d="M984,685.2c-39.7-17.7-59.1-37.1-65-82.7h-3.4c-13.5,43-52.3,45.6-90.3,43c55.7-16,81-56.5,95.4-97.9
	C935.1,600,961.2,646.4,984,685.2z"/>
<path class="st6" d="M728.3,717.3c-19.3,18.2-40.5,35-64.2,49.4c0,0-0.1,0-0.1,0.1c-0.2,0.1-0.4,0.2-0.6,0.4
	c-0.1,0.1-0.2,0.1-0.3,0.2c0,0,0,0,0,0h0c0,0,0,0,0,0c-0.1,0-0.1,0.1-0.2,0.1c0,0,0,0,0,0c0,0,0,0,0,0c0,0-0.1,0-0.1,0c0,0,0,0,0,0
	c-0.1,0-0.1,0.1-0.2,0.1l0,0c0,0,0,0,0,0l0,0c0,0,0,0,0,0c0,0-0.1,0-0.1,0.1c0,0,0,0,0,0c0,0,0,0,0,0c0,0-0.1,0-0.1,0.1
	c0,0-0.1,0-0.1,0c-0.1,0-0.2,0.1-0.2,0.1c0,0,0,0,0,0c0,0,0,0,0,0c0,0-0.1,0-0.1,0.1c-0.1,0-0.1,0-0.1,0.1c0,0,0,0,0,0
	c0,0,0,0-0.1,0c-0.2,0.1-0.3,0.2-0.5,0.3c-0.2,0.1-0.3,0.2-0.5,0.3c-0.1,0-0.2,0.1-0.2,0.1c-0.1,0-0.2,0.1-0.2,0.1c0,0,0,0-0.1,0
	c-0.1,0.1-0.2,0.1-0.3,0.2c-0.9,0.5-1.8,1-2.7,1.6c-1.1,0.6-2.2,1.2-3.2,1.8c-0.2,0.1-0.3,0.2-0.5,0.3l0,0c0,0-0.1,0-0.1,0
	c-0.2,0.1-0.3,0.2-0.5,0.3c-0.2,0.1-0.4,0.2-0.6,0.3c-2.4,1.3-4.8,2.6-7.2,3.9c-0.5,0.2-0.9,0.5-1.4,0.7c-0.4,0.2-0.7,0.3-1,0.5
	c-0.9,0.4-1.7,0.9-2.5,1.3c-0.2,0.1-0.4,0.2-0.5,0.3c-4.8,2.4-9.8,4.7-14.8,7c18.2,54.8,6.7,111.8-1.8,167.5
	c-0.1,0.8-0.3,1.6-0.4,2.5c0,0.1,0,0.2,0,0.2c-0.2,0.9-0.3,1.8-0.4,2.6c-0.3,1.8-0.5,3.5-0.8,5.3c-17.7-81-43.9-167.9-31.2-249.8
	C633.8,735,684.4,735.9,728.3,717.3z"/>
<path class="st7" d="M621.9,960.1c0.1-0.8,0.2-1.7,0.4-2.6C622.2,958.3,622,959.2,621.9,960.1z"/>
<path class="st7" d="M662,768C662.1,767.9,662.1,767.9,662,768C662.1,767.9,662.1,767.9,662,768C662.1,768,662.1,768,662,768
	C662.1,768,662.1,768,662,768c-0.1,0.1-0.2,0.1-0.3,0.2l0,0c0,0,0,0,0,0c0,0,0,0,0,0c0,0,0,0-0.1,0c-0.1,0-0.2,0.1-0.3,0.2
	c0,0-0.1,0-0.1,0.1c0,0,0,0,0,0c-0.1,0.1-0.2,0.1-0.3,0.2c-0.1,0.1-0.2,0.2-0.4,0.2c-1.2,0.7-2.5,1.4-3.7,2.1
	c-2.4,1.4-4.8,2.7-7.2,4c-0.7,0.3-1.3,0.7-2,1.1c-3.4,1.8-6.8,3.6-10.3,5.2c-0.8,0.4-1.6,0.8-2.4,1.2c-0.2,0.1-0.3,0.2-0.5,0.2
	c-3.3,1.6-6.7,3.1-10.1,4.7c5.1-2.3,10-4.6,14.8-7c0.2-0.1,0.4-0.2,0.5-0.3c0.8-0.4,1.7-0.9,2.5-1.3c0.3-0.2,0.7-0.4,1-0.5
	c0.5-0.2,0.9-0.5,1.4-0.7c2.4-1.3,4.8-2.5,7.2-3.9c0.2-0.1,0.4-0.2,0.6-0.3c0.2-0.1,0.3-0.2,0.5-0.3c0,0,0,0,0.1,0l0,0
	c0.2-0.1,0.3-0.2,0.5-0.3c1-0.6,2.1-1.2,3.2-1.8c0.9-0.5,1.8-1,2.7-1.6c0.1-0.1,0.2-0.1,0.3-0.2c0,0,0.1,0,0.1,0
	c0.1,0,0.2-0.1,0.2-0.1c0.1,0,0.2-0.1,0.2-0.1c0.1-0.1,0.3-0.2,0.5-0.3c0.2-0.1,0.3-0.2,0.5-0.3c0,0,0,0,0.1,0c0,0,0,0,0,0
	c0,0,0-0.1,0.1-0.1c0,0,0.1,0,0.1-0.1c0,0,0,0,0,0c0,0,0,0,0,0C661.9,768,662,768,662,768z"/>
<path class="st7" d="M662.1,767.9C662.2,767.9,662.2,767.9,662.1,767.9L662.1,767.9C662.2,767.9,662.2,767.9,662.1,767.9
	C662.2,767.9,662.2,767.9,662.1,767.9L662.1,767.9C662.2,767.9,662.2,767.9,662.1,767.9z"/>
<path class="st7" d="M662.2,767.8C662.2,767.8,662.2,767.8,662.2,767.8L662.2,767.8C662.3,767.8,662.2,767.8,662.2,767.8z"/>
<path class="st7" d="M662.4,767.7C662.4,767.8,662.4,767.8,662.4,767.7L662.4,767.7C662.4,767.7,662.4,767.7,662.4,767.7z"/>
<path class="st7" d="M662.4,767.7C662.5,767.7,662.5,767.7,662.4,767.7C662.5,767.7,662.5,767.7,662.4,767.7
	C662.5,767.7,662.5,767.7,662.4,767.7z"/>
<path class="st7" d="M662.5,767.7c0,0,0.1-0.1,0.2-0.1C662.6,767.6,662.6,767.7,662.5,767.7C662.5,767.7,662.5,767.7,662.5,767.7
	C662.5,767.7,662.5,767.7,662.5,767.7C662.5,767.7,662.5,767.7,662.5,767.7L662.5,767.7z"/>
<path class="st7" d="M662.7,767.6C662.7,767.6,662.8,767.5,662.7,767.6C662.8,767.5,662.7,767.6,662.7,767.6L662.7,767.6z"/>
<path class="st7" d="M663.1,767.4C663.1,767.3,663.1,767.3,663.1,767.4C663.1,767.3,663.1,767.3,663.1,767.4
	C663.1,767.3,663.1,767.4,663.1,767.4z"/>
<path class="st8" d="M630.2,906.7c0,0,0,0.1,0,0.1c-2.2,16-5,32.1-7.5,48c8.5-55.7,20-112.7,1.8-167.5c1.5,4.4,2.9,8.8,4,13.2
	c0.1,0.3,0.1,0.6,0.2,0.8C637.5,836,635.1,871.4,630.2,906.7z"/>
<path class="st8" d="M661.4,768.3C661.4,768.3,661.4,768.3,661.4,768.3C661.5,768.3,661.4,768.3,661.4,768.3
	C661.4,768.4,661.3,768.4,661.4,768.3C661.3,768.4,661.3,768.4,661.4,768.3c-0.2,0.1-0.2,0.2-0.3,0.2c0,0,0,0,0,0
	c-0.1,0.1-0.2,0.2-0.4,0.2c-1.2,0.7-2.5,1.4-3.7,2.1c-1.2,0.7-2.4,1.4-3.7,2.1c-6.1,3.4-12.4,6.7-18.9,9.8c-0.1,0.1-0.3,0.1-0.4,0.2
	c-3.1,1.5-6.3,2.9-9.5,4.3c5.1-2.3,10-4.6,14.8-7c0.2-0.1,0.4-0.2,0.5-0.3c1.2-0.6,2.4-1.2,3.6-1.8c0.5-0.2,0.9-0.5,1.4-0.7
	c2.4-1.3,4.8-2.5,7.2-3.9c0.2-0.1,0.4-0.2,0.6-0.3c0.2-0.1,0.3-0.2,0.5-0.3c0,0,0,0,0.1,0l0,0c0.4-0.2,0.8-0.4,1.2-0.6
	c1.4-0.8,2.8-1.5,4.1-2.3c0.4-0.2,0.7-0.4,1.1-0.6c0.4-0.2,0.7-0.4,1.1-0.6c0,0,0.1,0,0.1-0.1c0.2-0.1,0.3-0.2,0.5-0.3
	C661.3,768.4,661.3,768.4,661.4,768.3C661.4,768.4,661.4,768.3,661.4,768.3z"/>
<path class="st8" d="M661.6,768.2C661.6,768.2,661.6,768.2,661.6,768.2c0,0-0.1,0.1-0.1,0.1C661.5,768.3,661.5,768.3,661.6,768.2
	C661.6,768.2,661.6,768.2,661.6,768.2z"/>
<path class="st8" d="M661.7,768.1C661.7,768.1,661.8,768.1,661.7,768.1L661.7,768.1C661.8,768.2,661.8,768.2,661.7,768.1
	C661.7,768.2,661.7,768.2,661.7,768.1c-0.1,0.1-0.1,0.1-0.1,0.1L661.7,768.1C661.7,768.2,661.7,768.2,661.7,768.1z"/>
<path class="st8" d="M661.8,768.1c0.1,0,0.2-0.1,0.2-0.1C662,768,661.9,768.1,661.8,768.1L661.8,768.1
	C661.8,768.1,661.8,768.1,661.8,768.1C661.8,768.1,661.8,768.1,661.8,768.1z"/>
<path class="st8" d="M662,768C662.1,767.9,662.1,767.9,662,768C662.1,767.9,662.1,767.9,662,768C662.1,768,662.1,768,662,768
	C662.1,768,662,768,662,768z"/>
<path class="st8" d="M662.1,767.9C662.2,767.9,662.2,767.9,662.1,767.9L662.1,767.9C662.2,767.9,662.2,767.9,662.1,767.9
	C662.2,767.9,662.2,767.9,662.1,767.9C662.2,767.9,662.2,767.9,662.1,767.9z"/>
<path class="st8" d="M662.4,767.7C662.5,767.7,662.5,767.7,662.4,767.7C662.5,767.7,662.5,767.7,662.4,767.7
	C662.5,767.7,662.5,767.7,662.4,767.7z"/>
<path class="st8" d="M662.5,767.7c0,0,0.1-0.1,0.2-0.1C662.6,767.6,662.6,767.7,662.5,767.7C662.5,767.7,662.5,767.7,662.5,767.7
	C662.5,767.7,662.5,767.7,662.5,767.7z"/>
<path class="st8" d="M662.7,767.6C662.7,767.6,662.8,767.5,662.7,767.6C662.8,767.5,662.7,767.6,662.7,767.6L662.7,767.6z"/>
<path class="st8" d="M663.1,767.4C663.1,767.3,663.1,767.3,663.1,767.4C663.1,767.3,663.1,767.3,663.1,767.4
	C663.1,767.4,663.1,767.4,663.1,767.4z"/>
<path class="st6" d="M916.5,535l-124,108.9l-8.4,5.9c-49.9-67.5-96.3-140.1-143.5-209.3c-49-75.9-111.4-174.7-129.2-238
	c13.5,33.8,39.7,57.4,65.8,81c39.7,37.1,91.1,79.3,142.6,118.1C782.3,448.1,848.2,497.9,916.5,535z"/>
<path class="st6" d="M936.9,391.8c0.6-1.1,1.6-2.5,2.3-3.7c0,0.1-0.1,0.1-0.1,0.2l-0.9,1.5c-0.2,0.3-0.4,0.7-0.6,1
	c-0.1,0.2-0.3,0.4-0.4,0.6c0,0.1-0.1,0.1-0.1,0.2C937.1,391.7,937,391.7,936.9,391.8c0,0.2-0.1,0.5-0.2,0.7c0,0-0.1,0.1-0.1,0.2
	c0,0.1-0.1,0.1-0.1,0.2c0,0.2-0.1,0.4,0,0.6c0,0.2,0.1,0.4,0.2,0.5c-70-7.6-146.6-46.4-211.6-73.4c-33.1-15.9-68.9-31.9-103.7-49.9
	c-1-0.5-2.1-1.1-3.1-1.6c-5.4-2.8-10.7-5.7-16-8.6c-2.3-1.3-4.6-2.6-6.9-3.9c-0.9-0.5-1.7-1-2.6-1.5c-0.9-0.5-1.7-1-2.6-1.5l-5.1-3
	c-1.6-1-3.3-1.9-4.9-2.9c-0.3-0.1-0.5-0.3-0.8-0.5c-0.7-0.4-1.3-0.8-1.9-1.2c-0.8-0.5-1.7-1-2.5-1.5c-1.5-0.9-3-1.8-4.5-2.8
	c-1.8-1.2-3.7-2.3-5.5-3.5c-1.5-1-3-2-4.5-2.9c-0.9-0.6-1.7-1.1-2.5-1.7c-4-2.7-7.9-5.4-11.8-8.2c-0.5-0.4-1-0.7-1.5-1.1
	c-0.7-0.5-1.5-1-2.2-1.6c-1.3-0.9-2.5-1.9-3.8-2.8c-1-0.8-2.1-1.6-3.1-2.4c-1-0.7-1.9-1.5-2.9-2.2s-1.9-1.5-2.8-2.2
	c-0.5-0.4-1.1-0.9-1.6-1.3c-0.4-0.3-0.8-0.6-1.2-0.9c-0.9-0.8-1.9-1.5-2.8-2.3c-1-0.8-2-1.6-2.9-2.5c-0.8-0.7-1.5-1.3-2.3-2
	c-0.7-0.6-1.3-1.1-1.9-1.7c-1.4-1.2-2.8-2.5-4.2-3.8c-0.2-0.2-0.5-0.4-0.7-0.7c-0.6-0.7-1.4-1.3-2-2
	c52.2,29.4,110.3,34.5,169.3,46.3c12.8,1.9,26.7,4.5,40.9,7.1c0.2,0,0.3,0.1,0.5,0.1c8.6,1.6,17.4,3.2,26.1,4.8
	c0.2,0,0.4,0.1,0.6,0.1c3.8,0.7,7.5,1.3,11.3,1.9c0.1,0,0.2,0,0.3,0c1.3,0.2,2.5,0.4,3.8,0.6c3.7,0.6,7.3,1.2,10.9,1.7
	c0.2,0,0.4,0.1,0.5,0.1c2.9,0.4,5.8,0.8,8.7,1.2c0.5,0.1,1,0.1,1.5,0.2c2.3,0.3,4.7,0.5,7,0.8c1.1,0.1,2.3,0.2,3.4,0.3
	c1.2,0.1,2.5,0.2,3.7,0.3c1.2,0.1,2.5,0.2,3.7,0.3c1.2,0.1,2.4,0.2,3.6,0.2c1,0.1,2,0.1,3,0.2c0.9,0,1.8,0.1,2.7,0.1
	c2.7,0.1,5.2,0.1,7.8,0.1c1.4,0,2.8-0.1,4.2-0.1c0.7,0,1.4-0.1,2-0.1c0.5,0,1-0.1,1.5-0.1c0.5,0,1-0.1,1.5-0.1c0,0,0.1,0,0.1,0
	c0.3,0,0.6,0,0.8-0.1c1.9-0.2,3.8-0.4,5.6-0.7c4.1-0.6,7.9-1.5,11.3-2.8c26.1,43.1,54.8,90.2,92.7,127.3
	C940.4,386.8,937.9,389.6,936.9,391.8z"/>
<path class="st7" d="M936.7,394L936.7,394c-70-7.6-146.7-46.4-211.7-73.4c-33.1-15.9-68.9-31.9-103.7-49.9c-1-0.5-2.1-1.1-3.1-1.6
	c-5.4-2.8-10.7-5.7-16-8.6c-2.3-1.3-4.6-2.6-6.9-3.9c-0.9-0.5-1.7-1-2.6-1.5c-0.9-0.5-1.7-1-2.6-1.5c-1.7-1-3.4-2-5.1-3
	c-1.6-1-3.3-1.9-4.9-2.9c-0.3-0.1-0.5-0.3-0.8-0.5c-0.7-0.4-1.3-0.8-1.9-1.2c-0.8-0.5-1.7-1-2.5-1.5c-1.5-0.9-3-1.8-4.5-2.8
	c-1.8-1.2-3.7-2.3-5.5-3.5c-1.5-1-3-2-4.5-2.9c-0.9-0.6-1.7-1.1-2.5-1.7c-4-2.7-7.9-5.4-11.8-8.2c-0.5-0.4-1-0.7-1.5-1.1
	c-0.7-0.5-1.5-1-2.2-1.6c-1.3-0.9-2.5-1.9-3.8-2.8c-1-0.8-2.1-1.6-3.1-2.4c-1-0.7-1.9-1.5-2.9-2.2s-1.9-1.5-2.8-2.2
	c-0.5-0.4-1.1-0.9-1.6-1.3c-0.4-0.3-0.8-0.6-1.2-0.9c-0.9-0.8-1.9-1.5-2.8-2.3c-1-0.8-2-1.7-2.9-2.5c-0.8-0.7-1.5-1.3-2.3-2
	c-0.7-0.6-1.3-1.1-1.9-1.7c-1.4-1.2-2.8-2.5-4.2-3.8c-0.2-0.2-0.5-0.4-0.7-0.7c-0.7-0.7-1.5-1.4-2.2-2.1c0.1,0,0.2,0.1,0.2,0.1
	c0,0,0,0,0,0c0.7,0.7,1.4,1.3,2,2c0.2,0.3,0.5,0.5,0.7,0.7c1.4,1.3,2.8,2.6,4.2,3.8c0.6,0.6,1.2,1.1,1.9,1.7c0.8,0.7,1.5,1.3,2.3,2
	c0.9,0.9,1.9,1.7,2.9,2.5c0.9,0.8,1.9,1.5,2.8,2.3c0.4,0.3,0.8,0.6,1.2,0.9c0.5,0.4,1.1,0.9,1.6,1.3c0.9,0.7,1.8,1.5,2.8,2.2
	s1.9,1.5,2.9,2.2c1,0.8,2.1,1.6,3.1,2.4c1.3,0.9,2.5,1.9,3.8,2.8c0.7,0.6,1.5,1.1,2.2,1.6c0.5,0.4,1,0.7,1.5,1.1
	c3.9,2.8,7.8,5.5,11.8,8.2c0.8,0.6,1.6,1.1,2.5,1.7c1.5,0.9,3,1.9,4.5,2.9c1.8,1.2,3.7,2.3,5.5,3.5c1.5,1,3,1.9,4.5,2.8
	c0.8,0.5,1.7,1,2.5,1.5c0.6,0.4,1.2,0.8,1.9,1.2c0.3,0.2,0.5,0.4,0.8,0.5c1.6,1,3.3,1.9,4.9,2.9l5.1,3c0.9,0.5,1.7,1,2.6,1.5
	c0.9,0.5,1.7,1,2.6,1.5c2.3,1.3,4.6,2.6,6.9,3.9c5.3,2.9,10.6,5.8,16,8.6c1,0.5,2.1,1.1,3.1,1.6c34.8,18,70.6,34,103.7,49.9
	C790.1,347.6,866.7,386.4,936.7,394z"/>
<path class="st7" d="M939.7,387.3C939.7,387.3,939.7,387.3,939.7,387.3c-0.5,1.4-1.8,3.1-2.5,4.5c-0.1,0.2-0.2,0.5-0.3,0.7
	c-0.2,0-0.2,0.1-0.3,0.2c0-0.1,0-0.1,0.1-0.2c0.1-0.2,0.2-0.5,0.3-0.7c0-0.1,0.1-0.1,0.1-0.2c0-0.1,0.1-0.1,0.1-0.2
	c0.1-0.2,0.3-0.4,0.4-0.6c0.2-0.3,0.4-0.7,0.6-1l0.9-1.5c0-0.1,0.1-0.1,0.1-0.2c-0.7,1.2-1.7,2.6-2.3,3.7c1-2.2,3.5-5,2.3-6.2
	c-38-37.1-66.7-84.2-92.7-127.3c-3.4,1.2-7.2,2.1-11.3,2.8c4.1-0.6,7.9-1.5,11.3-2.8c0.1,0,0.2-0.1,0.2-0.1c0,0,0,0,0,0
	c1.9,3.2,3.9,6.4,5.9,9.7c1.3,2.2,2.7,4.4,4,6.6c23.5,38.4,49.6,78.6,82.9,111.1C939.9,386,939.9,386.6,939.7,387.3z"/>
<path class="st8" d="M936.7,394c0,0,0,0.1,0.1,0.1c-70-7.6-146.8-46.4-211.8-73.4c-33.1-16-69-31.9-103.7-50
	c34.8,18,70.6,34,103.7,49.9C790,347.6,866.7,386.4,936.7,394z"/>
<path class="st8" d="M939.7,387.3C939.7,387.3,939.7,387.3,939.7,387.3c-0.1,0.3-0.3,0.5-0.4,0.8c-0.7,1.2-1.7,2.6-2.3,3.7
	c1-2.2,3.5-5,2.3-6.2c-38-37.1-66.7-84.2-92.7-127.3c2,3.2,4.1,6.4,6.1,9.6c0.2,0.4,0.5,0.7,0.7,1.1c0.1,0.1,0.1,0.1,0.1,0.2
	c25,39.3,52,81.7,86.7,115.6C940.4,385.5,940.1,386.3,939.7,387.3z"/>
<path class="st6" d="M493.7,186.5l-2.5,0.8c-21.1,1.7-48.9-11-69.2-24.5c5,0.7,9.9,1.4,14.8,2.1c17.1,2.3,33.8,4.3,53.6,6.1
	c0.8,0.1,1.7,0.2,2.5,0.2L493.7,186.5z"/>
<path class="st8" d="M492.9,170.4v0.8c-0.8-0.1-1.7-0.2-2.5-0.2c-2.5-0.2-4.9-0.5-7.2-0.7c-4-0.4-7.8-0.8-11.6-1.2
	c-17.3-1.9-32.9-3.9-49.6-6.3C445.6,165.3,466.7,167.9,492.9,170.4z"/>
<path class="st6" d="M647.3,173c-38,11-95.4,16-133.3,17.7h-7.6c-1.7-0.8-2.5-1.7-2.5-2.5h-0.8l0.8-16
	C549.4,175.5,593.3,177.2,647.3,173z"/>
<path class="st6" d="M483,196c-38.3,15.3-125.4,54.8-180,75.7c-69.2,26.2-144.1,46.4-214,69.1c0.2-0.2,0.4-0.4,0.6-0.6
	c1-0.9,2.1-1.8,3.1-2.8c0,0,0,0,0.1-0.1c40.6-35.2,89-72.1,119.2-110.4c12.8,3.5,25.9,5.4,39.1,6.1c9.7,0.5,19.5,0.5,29.4-0.1
	c29.2-1.7,59-7.5,88.5-13.6c23.3-3.1,82.9-17.7,108.8-22.5c0.6-0.1,1.2-0.2,1.8-0.3c0.6-0.1,1.1-0.2,1.7-0.3c0,0,0,0,0,0
	c0.1,0,0.1,0,0.2,0c0.1,0,0.2,0,0.3,0C482.2,196.1,482.6,196.1,483,196z"/>
<path class="st7" d="M88.9,340.9c0.2-0.2,0.5-0.4,0.7-0.6c-0.2,0.2-0.4,0.4-0.6,0.6C89,340.9,89,340.9,88.9,340.9z"/>
<path class="st7" d="M212,227c12.8,3.5,25.9,5.4,39.1,6.1C237.8,232.4,224.8,230.5,212,227C212,227,212,227,212,227z"/>
<path class="st7" d="M483.5,195.8C483.5,195.8,483.5,195.8,483.5,195.8c-0.2,0.1-0.3,0.1-0.5,0.2c-0.4,0.1-0.8,0.1-1.2,0.2
	c-0.1,0-0.2,0-0.3,0c0.4-0.1,0.8-0.2,1.2-0.3C483,195.9,483.2,195.8,483.5,195.8z"/>
<path class="st8" d="M88.7,340.9c1.3-1.1,2.6-2.3,3.9-3.4C91.3,338.6,90.1,339.7,88.7,340.9C88.8,340.9,88.7,340.9,88.7,340.9z"/>
<path class="st8" d="M368.9,219.4c23.2-3.9,83-17.7,108.8-22.5C451.8,201.7,392.2,216.3,368.9,219.4z"/>
<path class="st8" d="M483.6,195.8L483.6,195.8L483.6,195.8c-0.8,0.1-1.6,0.3-2.4,0.4C482,196.1,482.8,195.9,483.6,195.8z"/>
<path class="st6" d="M494.6,201.7c-24.5,75.1-91.2,160.3-146.9,232.1c-48.9,65-108.9,137.6-182.3,182.3
	c-32.1-41.4-54.9-93.7-97.9-127.4c193.3-56.6,308.1-171.4,426.2-290.4C494.6,200,494.6,200,494.6,201.7z"/>
<path class="st6" d="M580.3,708.9c-1.3-0.2-2.7-0.3-4-0.5c-64.9-7.7-129.9-8.7-194.8-10.5c-0.3,0-0.6,0-0.9,0
	c-4.4-0.1-8.9-0.2-13.3-0.4c-4.7-0.1-9.5-0.3-14.2-0.4c16.9-40.3,34.6-83.5,51.8-127.8c1.4-3.7,2.8-7.4,4.3-11.1
	c8.9-23.1,17.5-46.4,25.8-69.9c3.6-10.1,7.1-20.2,10.5-30.4c1.4-4.3,2.9-8.6,4.3-12.9c0.7-2.1,1.4-4.3,2.1-6.4
	c0.7-2.1,1.4-4.3,2.1-6.4c0,0,0,0,0-0.1c1.3-4,2.5-7.9,3.8-11.9c0,0,0,0,0-0.1c1.2-3.8,2.3-7.5,3.5-11.3c0.5-1.7,1-3.4,1.6-5.1
	l1.5-5.1c1.4-4.7,2.8-9.4,4.1-14.1c0.4-1.3,0.8-2.6,1.1-4c1.1-3.9,2.2-7.9,3.3-11.8c0.6-2.1,1.1-4.2,1.7-6.2c0.4-1.3,0.7-2.6,1-3.8
	c0.2-0.8,0.4-1.5,0.6-2.2c0.7-2.4,1.3-4.8,1.9-7.3c0.7-2.6,1.3-5.2,2-7.8l1.5-6c0.5-1.9,0.9-3.7,1.4-5.6c0.6-2.6,1.2-5.2,1.9-7.7
	c0.6-2.6,1.2-5.1,1.8-7.7c0.5-2.4,1.1-4.7,1.6-7c0.9-4,1.8-8,2.6-12c0.5-2.5,1-5,1.6-7.6c0.3-1.7,0.7-3.5,1-5.2
	c0.3-1.8,0.7-3.5,1-5.2c0.2-0.8,0.3-1.7,0.5-2.5c0.1-0.7,0.3-1.4,0.4-2.1c0.2-1.1,0.4-2.2,0.6-3.3c0.3-1.5,0.5-3,0.8-4.5
	c0.2-1,0.4-2.1,0.5-3.1c0.1-0.8,0.3-1.5,0.4-2.3c0.3-1.5,0.5-3,0.8-4.5c0.2-1.5,0.5-3,0.7-4.5c0.3-1.8,0.5-3.6,0.8-5.4
	c0.3-1.9,0.5-3.7,0.8-5.6c0.7-4.8,1.3-9.6,1.9-14.4c0.2-1.5,0.3-3,0.5-4.5c0.2-2.1,0.5-4.1,0.7-6.2c0.2-2.1,0.5-4.4,0.6-6.5
	c13.5,133.2,36.3,303.5,60.8,434.1c0.5,2.8,1,5.5,1.5,8.2C570.7,670.2,574.6,689.9,580.3,708.9z"/>
<path class="st7" d="M435,488.3c-8.3,23.5-17,46.8-25.8,69.9c12.6-33,24.9-66.7,36.2-100.3c1.5-4.3,2.9-8.6,4.3-12.9
	c0.7-2.1,1.4-4.3,2.1-6.4c0.7-2.1,1.4-4.3,2.1-6.4c0,0,0,0,0-0.1c1.3-3.9,2.5-7.9,3.8-11.9c0,0,0,0,0-0.1c1.2-3.8,2.4-7.5,3.5-11.3
	c0.5-1.7,1-3.4,1.6-5.1l1.5-5.1c1.4-4.7,2.8-9.4,4.1-14.1c0.4-1.3,0.8-2.6,1.1-4c1.1-3.9,2.2-7.9,3.3-11.8c0.6-2.1,1.1-4.2,1.7-6.2
	c0.4-1.3,0.7-2.6,1-3.8c0.2-0.8,0.4-1.5,0.6-2.2c0.7-2.4,1.3-4.8,1.9-7.3c0.7-2.6,1.3-5.2,2-7.8l1.5-6c0.5-1.9,0.9-3.7,1.4-5.6
	c0.6-2.6,1.2-5.2,1.9-7.7c0.6-2.6,1.2-5.1,1.8-7.7c0.5-2.4,1.1-4.7,1.6-7c0.9-4,1.8-8,2.6-12c0.5-2.5,1-5,1.6-7.6
	c0.4-1.8,0.7-3.5,1-5.2c0.3-1.8,0.7-3.5,1-5.2c0.2-0.8,0.3-1.7,0.5-2.5c0.1-0.7,0.3-1.4,0.4-2.1c0.2-1.1,0.4-2.2,0.6-3.3
	c0.3-1.5,0.5-3,0.8-4.5c0.2-1,0.4-2.1,0.5-3.1c0.1-0.8,0.3-1.5,0.4-2.3c0.3-1.5,0.5-3,0.8-4.5c0.2-1.5,0.5-3,0.7-4.5
	c0.3-1.8,0.5-3.6,0.8-5.4c0.3-1.9,0.5-3.7,0.8-5.6c0.7-4.8,1.3-9.6,1.9-14.4c0.2-1.5,0.3-3,0.5-4.5c0.2-2.1,0.5-4.1,0.7-6.2
	c0.2-2.3,0.5-4.7,0.7-7c0,0.2,0,0.3,0,0.5c-0.2,2.1-0.5,4.4-0.6,6.5c-0.2,2.1-0.5,4.1-0.7,6.2c-0.2,1.5-0.3,3-0.5,4.5
	c-0.6,4.8-1.2,9.6-1.9,14.4c-0.3,1.9-0.5,3.7-0.8,5.6c-0.3,1.8-0.5,3.6-0.8,5.4c-0.2,1.5-0.5,3-0.7,4.5c-0.3,1.5-0.5,3-0.8,4.5
	c-0.1,0.8-0.3,1.5-0.4,2.3c-0.1,1-0.3,2.1-0.5,3.1c-0.3,1.5-0.5,3-0.8,4.5c-0.2,1.1-0.4,2.2-0.6,3.3c-0.1,0.7-0.3,1.4-0.4,2.1
	c-0.2,0.8-0.3,1.7-0.5,2.5c-0.3,1.7-0.7,3.4-1,5.2c-0.3,1.7-0.7,3.5-1,5.2c-0.6,2.6-1.1,5.1-1.6,7.6c-0.8,4-1.7,8-2.6,12
	c-0.5,2.3-1.1,4.6-1.6,7c-0.6,2.6-1.2,5.1-1.8,7.7c-0.7,2.5-1.3,5.1-1.9,7.7c-0.5,1.9-0.9,3.7-1.4,5.6l-1.5,6
	c-0.7,2.6-1.3,5.2-2,7.8c-0.6,2.5-1.2,4.9-1.9,7.3c-0.2,0.7-0.4,1.4-0.6,2.2c-0.3,1.2-0.6,2.5-1,3.8c-0.6,2-1.1,4.1-1.7,6.2
	c-1.1,3.9-2.2,7.9-3.3,11.8c-0.3,1.4-0.7,2.7-1.1,4c-1.3,4.7-2.7,9.4-4.1,14.1l-1.5,5.1c-0.6,1.7-1.1,3.4-1.6,5.1
	c-1.2,3.8-2.3,7.5-3.5,11.3c0,0.1,0,0.1,0,0.1c-1.3,4-2.5,7.9-3.8,11.9c0,0.1,0,0.1,0,0.1c-0.7,2.1-1.4,4.3-2.1,6.4
	c-0.7,2.1-1.4,4.3-2.1,6.4c-1.4,4.3-2.9,8.6-4.3,12.9C442.1,468.1,438.6,478.2,435,488.3z"/>
<path class="st7" d="M568.7,707.6c-1.2-0.1-2.5-0.3-3.7-0.4c-1.6-0.2-3.1-0.3-4.7-0.5c-1-0.1-2-0.2-3-0.3c-1.3-0.1-2.7-0.3-4-0.4
	c-2.1-0.2-4.1-0.4-6.2-0.6c0,0-0.1,0-0.1,0c-1.4-0.1-2.8-0.3-4.2-0.4c-3.5-0.3-7-0.6-10.4-0.8c-1.8-0.1-3.5-0.3-5.3-0.4
	c-1.7-0.1-3.3-0.2-5-0.4c-1.9-0.1-3.8-0.3-5.7-0.4c-2-0.1-4-0.3-6-0.4c-1.1-0.1-2.2-0.1-3.3-0.2c-2.2-0.1-4.4-0.3-6.7-0.4
	c-2.1-0.1-4.2-0.2-6.4-0.3c-0.2,0-0.3,0-0.5,0c-1.8-0.1-3.7-0.2-5.5-0.3c-2.4-0.1-4.7-0.2-7.1-0.3c-3.9-0.2-7.9-0.4-11.8-0.5
	c-0.2,0-0.3,0-0.5,0c-2.1-0.1-4.2-0.2-6.3-0.2c-0.1,0-0.1,0-0.2,0c-1.8-0.1-3.7-0.1-5.5-0.2c-0.2,0-0.5,0-0.7,0
	c-2.1-0.1-4.2-0.2-6.4-0.2c-0.2,0-0.4,0-0.6,0c-1.7-0.1-3.4-0.1-5.1-0.2c-0.4,0-0.8,0-1.2,0c-0.1,0-0.1,0-0.2,0c0,0,0,0,0,0
	c-2.9-0.1-5.8-0.2-8.6-0.3c-6-0.2-12.1-0.3-18.1-0.5c-6-0.2-12.1-0.3-18.1-0.5c-1.2,0-2.4-0.1-3.7-0.1c-4.4-0.1-8.9-0.2-13.3-0.4
	c0.3,0,0.6,0,0.9,0C443.9,699.6,506.3,700.7,568.7,707.6z"/>
<path class="st7" d="M576.3,708.4c-2.5-0.3-5-0.6-7.5-0.8c0.6,0.1,1.1,0.1,1.7,0.2C572.4,708,574.3,708.2,576.3,708.4z"/>
<path class="st8" d="M580.6,709.7c-75.9-9.3-151.9-9.3-227.8-11.8c0.1-0.3,0.2-0.5,0.3-0.8c4.7,0.2,9.5,0.3,14.2,0.4
	c4.4,0.1,8.9,0.3,13.3,0.4c0.3,0,0.6,0,0.9,0c62.4,1.7,124.8,2.7,187.2,9.6c0.6,0.1,1.1,0.1,1.7,0.2c1.9,0.2,3.9,0.4,5.8,0.7
	c1.3,0.2,2.7,0.3,4,0.5C580.4,709.1,580.5,709.4,580.6,709.7z"/>
<path class="st9" d="M992.3,682.1c-30.8-43.5-57.4-92-67.4-142.1c25.9-20.8,35.2-59.9,36.3-91.6c9,14.1,17.2,43,27.9,50.3
	C979.1,556.5,984.8,619.3,992.3,682.1z"/>
<path class="st10" d="M992.3,682.1L992.3,682.1c-7.5-62.8-13.3-125.7-3.2-183.4c-10.7-7.4-18.9-36.3-27.9-50.3c0-0.4,0-0.8,0-1.2
	c9.3,13.5,17.7,43.9,28.7,51.5c-10.1,58.3-5,121.5,3.4,184.8C993,683,992.7,682.6,992.3,682.1z"/>
<path class="st11" d="M611.9,963.6c-12.1-1-24.3-2-36.6-3c-0.4,0-0.7-0.1-1.1-0.1c-84.6-7.5-171.6-16.2-256-4.4
	c12.7-75.9,32.1-172.2,32.1-252.3c47.3,59.1,177.2,81,231.2,23.6c-0.2,2.8-0.3,5.7-0.4,8.6c0,0.1,0,0.2,0,0.3
	C579.1,803.6,599.7,891,611.9,963.6z"/>
<path class="st10" d="M581.5,727.4c-0.2,2.8-0.3,5.7-0.4,8.6C581.2,733.1,581.3,730.2,581.5,727.4z"/>
<path class="st10" d="M611.9,963.7c-12.1-1-24.3-2-36.6-3.1C587.5,961.6,599.7,962.7,611.9,963.7L611.9,963.7z"/>
<path class="st9" d="M159.6,623.6c-3.4,75.3-43.3,160.6-69.4,233.6C84.1,790,60.4,705.8,10.2,648c26.5-39.8,45.7-94.1,54.4-141.6
	C74,560.6,118,597,159.6,623.6z"/>
<path class="st10" d="M160.4,623.6c-3.4,75.9-43.9,162-70,235.4c-0.1-0.6-0.1-1.2-0.2-1.8l0,0c26.1-73,66-158.3,69.4-233.6
	c-41.5-26.6-85.6-63-95-117.2l0,0c0.2-0.9,0.3-1.8,0.5-2.7C72.6,559.5,117.3,595.8,160.4,623.6z"/>
<path class="st9" d="M487.8,193.2c-40.5,4.2-78.5,16.9-118.1,22.8c-54.9,11.8-102.1,15.2-151.1,6.8c2.5-0.4,4.9-0.9,7.3-1.4
	c2.4-0.5,4.8-0.9,7.2-1.4s4.8-1,7.2-1.5c68.9-14.3,127.1-34,178.3-53.2C438,181.4,468.4,189.9,487.8,193.2z"/>
<path class="st10" d="M487.8,193.2c-19.4-3.3-49.8-11.8-69.2-27.8c-51.2,19.1-109.4,38.9-178.3,53.2c68.9-14.3,127.1-34.8,178.3-54
	C438,181.4,468.4,189,487.8,193.2z"/>
<path class="st11" d="M842.9,255.6c-52.2,9.2-108.8-5.9-161-16c-57.3-11-113.7-24.5-168.5-45.5c42.2-0.8,98.5-7.6,140.6-21.9
	C713,200,767,231.1,842.9,255.6z"/>
<path class="st10" d="M843.1,255.7c-52.3,9.3-108.9-5.9-161.2-16c-57.4-11-113.9-24.5-168.8-45.6c0.1,0,0.2,0,0.2,0h0.1
	c54.8,21,111.2,34.5,168.5,45.5c52.2,10.1,108.8,25.3,161,16l0,0C843,255.7,843,255.7,843.1,255.7z"/>
<path class="st9" d="M935.1,396.6c-17.8,40.5-12.7,89.5-16.9,133.4c-69.2-37.2-133.3-83.6-195.8-130.8
	c-50.6-38.8-108-82.7-146.8-119.8c-17.1-16.3-45.7-57-59.3-74.6c58,57.1,137.4,89.5,211.2,121.8c21.2,7.3,42.2,16.2,63.3,25.1
	c0.5,0.2,1.1,0.5,1.6,0.7C838.4,372.3,885.2,392,935.1,396.6z"/>
<path class="st10" d="M790.8,351.7c-21.1-8.9-42.1-17.8-63.3-25.1c-73.8-32.3-153.2-64.6-211.2-121.8l0,0c-1.1-1.5-2.2-2.8-3.1-3.9
	c58.2,59.1,139.2,92,214.3,124.9C748.6,333.4,769.6,342.5,790.8,351.7z"/>
<path class="st11" d="M779.8,649.8c-63.9,11.8-130.4,37.9-193.6,58.9c-6.7-21.7-12.5-45.8-16.6-67.4
	c-26.7-136.6-47.7-295.6-61.2-434.3c28.1,85.4,79.7,160.3,127.9,235.2C681.9,513.1,729.1,582.3,779.8,649.8z"/>
<path class="st10" d="M780.6,650.6c-64.1,11.8-130.8,38-194.1,59.1c-0.1-0.3-0.2-0.7-0.3-1c63.1-21.1,129.7-47.2,193.6-58.9
	c-50.7-67.5-97.9-136.7-143.5-207.6c-48.2-74.8-99.8-149.8-127.9-235.2l0,0c-0.1-0.9-0.2-1.9-0.3-2.8
	c27.8,86.9,80.1,162.9,129.1,238.8C682.8,513.1,730,583.1,780.6,650.6z"/>
<path class="st9" d="M349.4,694.5c-55.4-24.4-115-62-177.1-74.9C241.9,572.3,299,503.5,351.9,438c50.7-75.1,121.6-148.6,146-238.8
	c0.3,1.8,0.5,3.8,0.6,5.8l0,0l0,0C504.2,295.4,414.3,539,349.4,694.5z"/>
<path class="st10" d="M349.4,695.4c-55.7-25.3-115.6-62.4-178.1-75.1c0.3-0.2,0.7-0.5,1-0.7c62.1,12.9,121.6,50.5,177.1,74.9
	C414.3,539,504.2,295.4,498.5,205C505.7,294.6,414.6,539.4,349.4,695.4z"/>
<path class="st11" d="M490.7,195.4c-114.5,117.9-234,238.1-424,287.9c5-28.8,9.2-60,12.2-90.5c1.6-16,2.9-31.8,3.8-46.9
	c39-12.1,78.2-23.2,117.2-35.2c0.1,0,0.2,0,0.3-0.1c30.6-9.4,61-19.3,90.8-30.5c3.7-1.4,7.5-2.8,11.2-4.3
	c17.3-6.7,34.3-13.6,50.7-20.4c4-1.7,8-3.3,12-5c2.2-0.9,4.4-1.9,6.6-2.8c1.2-0.5,2.4-1,3.7-1.6c1.7-0.7,3.3-1.4,4.9-2.1
	C430.8,222.2,472.2,202.8,490.7,195.4z"/>
<path class="st10" d="M200,310.7c-39,12-78.2,23.1-117.2,35.2c-0.9,15.1-2.2,30.9-3.8,46.9c1.6-16,2.9-31.8,3.7-46.9
	C121.6,333.8,161,322.7,200,310.7z"/>
<path class="st10" d="M352.9,255.5c-16.3,6.8-33.4,13.7-50.7,20.4c-3.7,1.5-7.5,2.9-11.2,4.3c3.7-1.4,7.4-2.8,11.1-4.3
	C319.4,269.2,336.5,262.3,352.9,255.5z"/>
<path class="st10" d="M492,194.9C377.3,313.1,257.4,433.8,66.7,483.5c0-0.1,0-0.1,0-0.2c189.9-49.8,309.5-170,424-287.9
	C491.1,195.2,491.6,195.1,492,194.9z"/>
</svg>
